<svg width="60" height="58" viewBox="0 0 60 58" fill="none" xmlns="http://www.w3.org/2000/svg">
<path d="M13.4049 26.9113C10.367 26.9113 7.89669 29.3817 7.89669 32.4195C7.89669 35.4574 10.367 37.9277 13.4049 37.9277C16.4427 37.9277 18.9159 35.4574 18.9159 32.4195C18.9131 29.3845 16.4427 26.9113 13.4049 26.9113ZM13.4049 40.2372C9.09374 40.2372 5.58725 36.7307 5.58725 32.4195C5.58725 28.1112 9.09374 24.6047 13.4049 24.6047C17.716 24.6047 21.2225 28.1112 21.2225 32.4195C21.2197 36.7307 17.7132 40.2372 13.4049 40.2372Z" fill="#284057"/>
<path d="M1.8495e-06 57.476V47.6115C-0.00282141 44.2885 3.22699 41.581 7.20215 41.5754L19.5793 41.5613C19.5821 41.5613 19.5878 41.5613 19.5906 41.5613C23.3456 41.5613 26.7928 44.074 26.7956 47.5805V57.476H24.489V47.5833C24.4862 45.3275 21.9396 43.8679 19.5906 43.8679C19.5878 43.8679 19.585 43.8679 19.5822 43.8679L7.20498 43.882C4.54828 43.8848 2.30378 45.5929 2.3066 47.6087V57.476H1.8495e-06Z" fill="#284057"/>
<path d="M35.2768 9.10785L33.2243 11.6685C33.1537 16.694 29.0402 20.7623 23.9978 20.7623C18.9103 20.7623 14.7714 16.6205 14.7714 11.533C14.7714 6.44551 18.9103 2.30661 23.9978 2.30661C26.4908 2.30661 28.755 3.30322 30.4208 4.91248L31.8663 3.10559C29.8053 1.1773 27.0357 0 24.0007 0C17.6399 0 12.4648 5.17504 12.4648 11.5359C12.4648 17.8967 17.6399 23.0717 24.0007 23.0717C30.3615 23.0717 35.5365 17.8967 35.5365 11.5359C35.5337 10.7002 35.4434 9.88989 35.2768 9.10785Z" fill="#284057"/>
<path d="M24.2519 16.9085C23.8877 16.8662 23.5659 16.6573 23.3824 16.3411L19.5371 9.71768C19.218 9.16714 19.4044 8.46133 19.9549 8.1423C20.5054 7.82327 21.2113 8.0096 21.5303 8.56014L24.5964 13.8396L34.3027 3.44156C34.7375 2.97573 35.4688 2.95031 35.9318 3.3851C36.3976 3.81988 36.423 4.55111 35.9882 5.01412L25.2231 16.55C24.969 16.8238 24.6048 16.9481 24.2519 16.9085Z" fill="#284057"/>
<path d="M46.6094 6.91982C43.5715 6.91982 41.1012 9.39018 41.1012 12.428C41.1012 15.4658 43.5715 17.9362 46.6094 17.9362C49.6472 17.9362 52.1175 15.4658 52.1175 12.428C52.1175 9.39018 49.6472 6.91982 46.6094 6.91982ZM46.6094 20.2428C42.2982 20.2428 38.7917 16.7363 38.7917 12.428C38.7917 8.11688 42.2982 4.61039 46.6094 4.61039C50.9205 4.61039 54.427 8.11688 54.427 12.428C54.4242 16.7363 50.9177 20.2428 46.6094 20.2428Z" fill="#284057"/>
<path d="M33.2045 37.4506V27.5861C33.2017 24.2631 36.4315 21.5556 40.4067 21.55L52.7838 21.5359C52.7867 21.5359 52.7923 21.5359 52.7951 21.5359C56.5021 21.5359 59.9973 24.0119 60.0001 27.5551V37.4506H57.6935V27.5579C57.6907 25.3106 55.1554 23.8425 52.7951 23.8425C52.7923 23.8425 52.7895 23.8425 52.7867 23.8425L40.4095 23.8566C37.7528 23.8594 35.5083 25.5675 35.5111 27.5833V37.4506H33.2045Z" fill="#284057"/>
<path d="M41.18 37.4449H38.8367V31.694H41.18V37.4449Z" fill="#284057"/>
<path d="M54.379 37.4449H52.0385V31.694H54.379V37.4449Z" fill="#284057"/>
<path d="M7.97577 57.476H5.63247V51.7278H7.97577V57.476Z" fill="#284057"/>
<path d="M21.1745 57.476H18.834V51.7278H21.1745V57.476Z" fill="#284057"/>
</svg>
