<svg width="60" height="57" viewBox="0 0 60 57" fill="none" xmlns="http://www.w3.org/2000/svg">
<path d="M29.7162 22.5946C30.3357 22.5946 30.9523 22.7473 31.5026 23.0354L35.6862 25.2338C36.2451 25.5277 36.9107 25.375 37.3025 24.9111C37.4783 24.7037 37.6656 24.3551 37.582 23.8566L36.7839 19.1977C36.5707 17.953 36.9827 16.6823 37.8874 15.8007L41.2729 12.5017C41.6359 12.1473 41.7598 11.6459 41.6042 11.1619C41.4457 10.6778 41.051 10.3465 40.5497 10.2716L35.8734 9.59164C34.623 9.41012 33.5425 8.62353 32.9836 7.49121L30.8918 3.25292C30.6671 2.79481 30.2291 2.52396 29.7191 2.52396C29.2091 2.52396 28.7712 2.79481 28.5465 3.25292L26.4547 7.49121C25.8957 8.62353 24.8153 9.40724 23.5648 9.59164L18.8886 10.2716C18.3844 10.3436 17.9896 10.6778 17.834 11.1619C17.6784 11.6459 17.7995 12.1473 18.1654 12.5017L21.5479 15.8007C22.4526 16.6823 22.8647 17.953 22.6515 19.1977L21.8534 23.8566C21.7669 24.3522 21.9571 24.7037 22.1328 24.9111C22.5247 25.375 23.1931 25.5248 23.7492 25.2338L27.9328 23.0354C28.4802 22.7473 29.0968 22.5946 29.7162 22.5946ZM34.5077 27.4725L30.3242 25.2742C29.9496 25.0754 29.48 25.0782 29.1083 25.2742L24.9247 27.4725C23.3372 28.3052 21.3405 27.899 20.1967 26.539C19.4735 25.6804 19.1652 24.5452 19.3582 23.4273L20.1563 18.7684C20.2283 18.3448 20.09 17.9126 19.7817 17.613L16.3963 14.314C15.3418 13.2883 14.9701 11.7785 15.4253 10.3811C15.8806 8.98081 17.0676 7.98101 18.5226 7.77068L23.1989 7.09071C23.6253 7.0302 23.9941 6.76225 24.1843 6.37617L26.2761 2.13789C26.9272 0.818283 28.2468 0 29.7162 0C31.1885 0 32.5053 0.818283 33.1564 2.13789L35.2482 6.37617C35.4384 6.76225 35.8072 7.0302 36.2336 7.09071L40.9098 7.77068C42.3649 7.98389 43.5519 8.98369 44.0072 10.3811C44.4624 11.7814 44.0907 13.2883 43.0362 14.314L39.6507 17.613C39.3425 17.9126 39.2013 18.3448 39.2762 18.7684L40.0743 23.4273C40.2673 24.5452 39.9619 25.6804 39.2358 26.539C38.0949 27.8961 36.1615 28.3427 34.5077 27.4725Z" fill="#284057"/>
<path d="M30.6901 47.0477V34.304C32.2488 34.4135 33.8537 34.7621 35.8763 35.4334C36.3286 35.5803 36.7695 35.7302 37.1959 35.88L30.6901 47.0477ZM24.5386 35.056C25.8669 34.7016 27.0194 34.425 28.0998 34.304V47.0477L21.8159 35.8281C22.6716 35.5717 23.5821 35.3124 24.5386 35.056ZM36.6686 33.0247C31.7446 31.3968 28.7568 31.3017 23.8817 32.6098C16.3329 34.6353 7.35208 37.8623 7.42411 41.7116V54.5043C7.42411 55.2044 7.98883 55.7692 8.68897 55.7692C9.38911 55.7692 9.95384 55.2044 9.95384 54.5043V41.6857C9.94231 41.1988 10.8557 40.3632 12.7544 39.3461L13.5957 47.7709C13.6533 48.35 14.0999 48.8138 14.6762 48.8974L20.0612 49.6667L24.8066 55.9939C25.2244 56.5471 26.0139 56.671 26.5786 56.2445C27.1347 55.8268 27.2499 55.0316 26.8292 54.4755L21.7727 47.7276C21.571 47.4597 21.2713 47.2811 20.9371 47.235L16.0131 46.5319C16.0131 46.5319 15.4714 38.4126 15.2697 38.2138C16.4856 37.6779 17.5661 37.214 19.2516 36.6407L28.4197 52.4874C28.6444 52.8822 29.0622 53.1242 29.5174 53.1242C29.9698 53.1242 30.3904 52.8793 30.6152 52.4874C30.6152 52.4874 39.5729 36.7962 39.5902 36.753C41.0251 37.3091 42.0104 37.6894 43.1255 38.2138C42.9584 38.4068 42.3677 46.5319 42.3677 46.5319L37.4437 47.235C37.1124 47.2811 36.8127 47.4597 36.6139 47.7276L31.5515 54.4755C31.1309 55.0316 31.2461 55.8268 31.8051 56.2445C32.3554 56.6623 33.1506 56.5557 33.5742 55.9939L38.3196 49.6667L43.7046 48.8974C44.2809 48.8138 44.7274 48.35 44.7851 47.7709L45.6149 39.5046C48.2368 40.9625 49.4873 42.164 49.4757 42.7921V54.5043C49.4757 55.2044 50.0405 55.7692 50.7406 55.7692C51.4407 55.7692 52.0055 55.2044 52.0055 54.5043V42.8151C52.0861 38.7295 42.4311 34.9292 36.6686 33.0247Z" fill="#284057"/>
<path d="M48.084 6.73054C47.8161 6.08514 48.1215 5.34467 48.7669 5.07671L58.249 1.13806C58.8944 0.870102 59.6349 1.17555 59.9028 1.82094C60.1708 2.46634 59.8654 3.20681 59.22 3.47477L49.7378 7.41339C49.1068 7.67558 48.3577 7.38458 48.084 6.73054Z" fill="#284057"/>
<path d="M58.7331 24.3637C58.5717 24.3637 58.4075 24.332 58.249 24.2657L48.7669 20.3271C48.1215 20.0592 47.8161 19.3187 48.084 18.6733C48.352 18.0279 49.0924 17.7196 49.7378 17.9904L59.22 21.9291C59.8654 22.197 60.1708 22.9375 59.9028 23.5829C59.7011 24.0698 59.2286 24.3637 58.7331 24.3637Z" fill="#284057"/>
<path d="M58.6755 14.1296H49.4555C48.7352 14.1296 48.1504 13.5447 48.1504 12.8244C48.1504 12.1041 48.7352 11.5192 49.4555 11.5192H58.6755C59.3958 11.5192 59.9807 12.1041 59.9807 12.8244C59.9807 13.5447 59.3958 14.1296 58.6755 14.1296Z" fill="#284057"/>
<path d="M11.9188 6.73054C12.1867 6.08514 11.8813 5.34467 11.2359 5.07671L1.75377 1.13806C1.10837 0.870102 0.3679 1.17555 0.0999454 1.82094C-0.168009 2.46634 0.1374 3.20681 0.782796 3.47477L10.2649 7.41339C10.8959 7.67558 11.6451 7.38458 11.9188 6.73054Z" fill="#284057"/>
<path d="M1.26689 24.3637C1.42824 24.3637 1.59249 24.332 1.75096 24.2657L11.2331 20.3271C11.8785 20.0592 12.1839 19.3187 11.916 18.6733C11.648 18.0279 10.9075 17.7196 10.2621 17.9904L0.779983 21.9291C0.134586 22.197 -0.170823 22.9375 0.0971317 23.5829C0.301699 24.0698 0.771322 24.3637 1.26689 24.3637Z" fill="#284057"/>
<path d="M1.32744 14.1296H10.5474C11.2677 14.1296 11.8526 13.5447 11.8526 12.8244C11.8526 12.1041 11.2677 11.5192 10.5474 11.5192H1.32744C0.607127 11.5192 0.0222283 12.1041 0.0222283 12.8244C0.0222283 13.5447 0.607127 14.1296 1.32744 14.1296Z" fill="#284057"/>
</svg>
