<svg width="13" height="15" viewBox="0 0 13 15" fill="none" xmlns="http://www.w3.org/2000/svg">
<path d="M7.7348 1.67828C8.10941 1.27246 8.0841 0.6398 7.67828 0.265197C7.27246 -0.109407 6.6398 -0.0841009 6.2652 0.32172L7.7348 1.67828ZM1 7.5L0.265196 6.82172C-0.0883992 7.20478 -0.0883992 7.79522 0.265196 8.17828L1 7.5ZM6.2652 14.6783C6.6398 15.0841 7.27246 15.1094 7.67828 14.7348C8.0841 14.3602 8.10941 13.7275 7.7348 13.3217L6.2652 14.6783ZM6.2652 0.32172L0.265196 6.82172L1.7348 8.17828L7.7348 1.67828L6.2652 0.32172ZM0.265196 8.17828L6.2652 14.6783L7.7348 13.3217L1.7348 6.82172L0.265196 8.17828Z" fill="#95B0C9"/>
<path d="M12.7348 1.67828C13.1094 1.27246 13.0841 0.6398 12.6783 0.265197C12.2725 -0.109407 11.6398 -0.0841009 11.2652 0.32172L12.7348 1.67828ZM6 7.5L5.2652 6.82172C4.9116 7.20478 4.9116 7.79522 5.2652 8.17828L6 7.5ZM11.2652 14.6783C11.6398 15.0841 12.2725 15.1094 12.6783 14.7348C13.0841 14.3602 13.1094 13.7275 12.7348 13.3217L11.2652 14.6783ZM11.2652 0.32172L5.2652 6.82172L6.7348 8.17828L12.7348 1.67828L11.2652 0.32172ZM5.2652 8.17828L11.2652 14.6783L12.7348 13.3217L6.7348 6.82172L5.2652 8.17828Z" fill="#95B0C9"/>
</svg>
