<svg width="60" height="66" viewBox="0 0 60 66" fill="none" xmlns="http://www.w3.org/2000/svg">
<path d="M27.6108 32.6986C28.6014 32.6986 29.4847 33.2843 29.8588 34.189L30.8739 36.6394L33.2476 35.655L32.2325 33.2046C31.84 32.26 32.0945 31.159 32.8643 30.469C33.082 30.2727 33.2906 30.0642 33.4899 29.8464C34.1707 29.0951 35.2932 28.8374 36.2194 29.2208L38.6698 30.2359L39.6542 27.8622L37.2069 26.8471C36.2623 26.4576 35.6643 25.5038 35.7164 24.4734C35.7226 24.3231 35.7226 23.7434 35.7164 23.6024C35.6674 22.5719 36.2654 21.6181 37.21 21.2287L39.7186 20.1951L38.7342 17.8061L36.2286 18.8549C35.2932 19.2383 34.1769 18.9746 33.4991 18.2232C33.2967 17.9993 33.0851 17.7877 32.8612 17.5853C32.0945 16.8952 31.843 15.7973 32.2325 14.8528L33.2476 12.4024L30.8739 11.421L29.8588 13.8714C29.4816 14.7791 28.6014 15.3618 27.6108 15.3618C27.5894 15.3618 26.4884 15.3618 26.4669 15.3618C25.4763 15.3618 24.5931 14.7761 24.2189 13.8714L23.1977 11.4087L20.8301 12.4024L21.8452 14.8558C22.2378 15.7973 21.9832 16.8952 21.2196 17.5883C20.9988 17.7877 20.7902 17.9962 20.594 18.214C19.9131 18.9653 18.7907 19.226 17.8614 18.8396L15.411 17.8245L14.4266 20.1982L16.88 21.2133C17.8216 21.6028 18.4196 22.5597 18.3674 23.587C18.3613 23.7342 18.3613 24.317 18.3674 24.458C18.4196 25.4885 17.8185 26.4423 16.8739 26.8317L14.3622 27.8653L15.3466 30.2543L17.8522 29.2055C18.7845 28.8221 19.9039 29.0828 20.5817 29.8372C20.7841 30.0611 20.9957 30.2727 21.2165 30.472C21.9832 31.1621 22.2378 32.2631 21.8452 33.2076L20.8301 35.658L23.2038 36.6425L24.2189 34.1921C24.5931 33.2843 25.4763 32.6986 26.4669 32.6986C26.4884 32.6986 27.5863 32.6986 27.6108 32.6986ZM28.5247 37.8355L27.4882 35.3299C27.1999 35.3422 26.8901 35.3422 26.5896 35.3299L25.553 37.8355C25.0378 39.0837 23.6178 39.6541 22.3911 39.145L19.6371 38.0041C18.4042 37.4951 17.8154 36.0813 18.3276 34.8423L19.3672 32.3367C19.1403 32.1281 18.9195 31.9042 18.7079 31.6773L16.1532 32.7476C14.9357 33.2506 13.5127 32.6894 12.9944 31.432L11.8566 28.6749C11.3475 27.439 11.9333 26.0252 13.1723 25.5161L15.7392 24.458C15.733 24.317 15.733 23.7312 15.7392 23.5809L13.2305 22.5413C11.9977 22.0291 11.4119 20.6122 11.921 19.3794L13.0619 16.6254C13.5801 15.371 15.0062 14.8098 16.2237 15.3158L18.7324 16.3555C18.9348 16.1377 19.1464 15.9261 19.3642 15.7237L18.3245 13.2181C18.0761 12.6201 18.0761 11.9638 18.3245 11.3658C18.5729 10.7678 19.036 10.3047 19.634 10.0562L22.388 8.91845C23.6178 8.40936 25.0347 8.98286 25.5499 10.228L26.5865 12.7336C26.8779 12.7213 27.1845 12.7213 27.4851 12.7336L28.5217 10.228C29.0369 8.98286 30.4538 8.40936 31.6836 8.91845L34.4376 10.0562C35.6704 10.5684 36.2593 11.9853 35.7471 13.2181L34.7074 15.7237C34.9344 15.9353 35.1583 16.1562 35.3668 16.3862L37.9215 15.3158C39.1451 14.8098 40.5651 15.3802 41.0803 16.6315L42.2181 19.3886C42.7272 20.6245 42.1383 22.0383 40.9024 22.5474L38.3386 23.6054C38.3447 23.7465 38.3447 24.3323 38.3386 24.4825L40.8441 25.5191C42.077 26.0282 42.6658 27.442 42.1537 28.681L41.0128 31.435C40.4945 32.6863 39.0715 33.2506 37.8509 32.7445L35.3453 31.708C35.1399 31.9288 34.9283 32.1404 34.7105 32.3428L35.7471 34.8484C36.2623 36.0874 35.6704 37.5012 34.4376 38.0103L31.6836 39.1511C30.466 39.651 29.043 39.0867 28.5247 37.8355Z" fill="#284057"/>
<path d="M27.0404 20.8668C25.2953 20.8668 23.8785 22.2867 23.8785 24.0287C23.8785 25.7737 25.2953 27.1905 27.0404 27.1905C28.7823 27.1905 30.2022 25.7737 30.2022 24.0287C30.2022 22.2867 28.7823 20.8668 27.0404 20.8668ZM27.0404 29.8188C23.8478 29.8188 21.2533 27.2212 21.2533 24.0317C21.2533 20.8422 23.8509 18.2446 27.0404 18.2446C30.2329 18.2446 32.8274 20.8422 32.8274 24.0317C32.8274 27.2212 30.2298 29.8188 27.0404 29.8188Z" fill="#284057"/>
<path d="M59.5639 39.6817C59.2081 40.246 53.648 41.7763 53.648 41.7763C53.1971 42.7638 52.3108 44.88 52.1974 46.536C52.0563 48.6307 52.4856 51.2191 52.5838 51.7588C53.2217 53.5468 53.7277 57.0245 51.2743 58.6254C49.4771 59.7969 46.3305 60.3704 37.1822 58.4874C36.8939 59.1468 36.4217 60.6557 36.0414 63.8758C35.9555 64.5996 35.2992 65.1117 34.5846 65.0289C33.8639 64.9431 33.3456 64.2929 33.4315 63.5722C33.9682 59.0026 34.8423 56.3989 36.0352 55.8346C36.2959 55.712 47.131 58.5549 49.6918 56.4879C49.7255 56.4603 49.7684 56.448 49.8114 56.4296C51.0565 55.3286 50.0322 52.4151 50.0169 52.3446C49.9985 52.2342 49.6028 50.2162 49.5476 48.0081H45.3093C44.5947 48.0081 44.009 47.4346 43.9967 46.7139C43.9844 45.9901 44.5641 45.3921 45.2878 45.3798H49.7102C50.1641 42.862 51.5073 40.1417 51.5748 40.016C51.7557 39.6633 52.087 39.4088 52.4795 39.329C52.4795 39.329 57.3772 38.0195 57.3557 37.8753L50.9216 30.3095C50.8909 30.2727 50.8602 30.2359 50.8326 30.193C49.379 28.0462 49.7715 24.0747 49.8206 23.63C51.7557 10.9548 43.0828 6.9649 42.7117 6.79929C42.6718 6.78395 26.8287 -2.73851 11.2584 7.47092C-3.59723 17.2111 4.76291 35.1857 6.06937 37.2405C9.31407 43.4631 10.8291 49.1152 11.1051 50.9093C11.8411 55.6905 11.1358 60.7017 10.5653 64.0384C10.4549 64.6793 9.89983 65.1301 9.27113 65.1301C9.19753 65.1301 9.12085 65.1209 9.04725 65.1117C8.33268 64.9891 7.85119 64.3082 7.97387 63.5937C8.51976 60.4103 9.20979 55.666 8.94912 51.1393C8.7375 50.2316 7.01395 43.1932 3.88273 38.6942C3.8674 38.6666 3.84593 38.6359 3.8306 38.6083C3.71099 38.4028 -7.81104 18.26 9.69742 5.35788C9.84769 5.24441 25.3995 -6.0016 43.8464 4.43172C44.8738 4.92547 54.5619 9.99491 52.4243 23.9704C52.2924 25.2125 52.32 27.6168 52.9763 28.6688C52.9763 28.6688 59.7233 36.6363 59.7755 36.7774C59.8368 36.9522 60.3582 38.4182 59.5639 39.6817Z" fill="#284057"/>
</svg>
