<svg width="654" height="415" viewBox="0 0 654 415" fill="none" xmlns="http://www.w3.org/2000/svg">
<path d="M453.604 86.5858C443.758 86.5858 434.15 87.7993 424.88 90.1015C394.709 35.8137 342.922 0 284.102 0C206.043 0 140.375 63.0671 121.166 148.683C118.875 156.312 116.957 164.151 115.441 172.173C113.213 171.619 110.905 171.323 108.54 171.323C90.0494 171.323 75.0611 189.144 75.0611 211.13C75.0611 213.861 75.2932 216.527 75.7335 219.105C44.5115 228.647 20.2071 258.682 13.5548 296.432C12.3666 303.179 11.7366 310.168 11.7366 317.333C11.7366 336.331 25.2893 358.309 47.2809 369.306C102.572 396.954 127.255 416.162 307.938 414.728C488.622 413.295 529.103 390.042 553.029 369.306C576.955 348.569 581.981 324.332 588.376 296.432C591.572 282.488 593.28 267.814 593.28 252.665C593.28 160.94 530.744 86.5858 453.604 86.5858Z" fill="#C5DAED"/>
<path d="M352.273 43.8338C348.743 47.1254 343.5 47.2387 343.5 47.2387C343.5 47.2387 343.985 42.0156 347.518 38.7264C351.049 35.4348 356.291 35.3215 356.291 35.3215C356.291 35.3215 355.807 40.5422 352.273 43.8338Z" fill="#9FBDC9"/>
<path d="M353.534 65.5723C349.507 68.232 344.318 67.4749 344.318 67.4749C344.318 67.4749 345.663 62.4061 349.69 59.7463C353.717 57.0865 358.906 57.8437 358.906 57.8437C358.906 57.8437 357.562 62.9149 353.534 65.5723Z" fill="#9FBDC9"/>
<path d="M340.137 23.8673C341.766 28.4128 339.802 33.2766 339.802 33.2766C339.802 33.2766 335.196 30.7712 333.567 26.2257C331.938 21.6802 333.899 16.8164 333.899 16.8164C333.899 16.8164 338.508 19.3218 340.137 23.8673Z" fill="#9FBDC9"/>
<path d="M337.107 40.7039C341.491 42.7223 343.588 47.5282 343.588 47.5282C343.588 47.5282 338.574 49.0643 334.19 47.0483C329.806 45.0324 327.709 40.2241 327.709 40.2241C327.709 40.2241 332.723 38.6856 337.107 40.7039Z" fill="#9FBDC9"/>
<path d="M337.844 60.5353C342.228 62.5512 344.328 67.3595 344.328 67.3595C344.328 67.3595 339.315 68.8956 334.931 66.8796C330.547 64.8613 328.447 60.0554 328.447 60.0554C328.447 60.0554 333.458 58.5169 337.844 60.5353Z" fill="#9FBDC9"/>
<path d="M337.042 105.93L336.129 105.566C336.17 105.46 340.361 94.7988 342.68 80.2122C344.039 71.6541 344.499 63.4385 344.046 55.7943C343.48 46.2548 341.482 37.5858 338.105 30.0237L339.002 29.6234C342.427 37.2965 344.454 46.086 345.027 55.7485C345.485 63.4674 345.02 71.7554 343.646 80.3882C341.308 95.0809 337.086 105.824 337.042 105.93Z" fill="#9FBDC9"/>
<path d="M311.122 42.0977C308.346 47.6367 302.094 50.1156 302.094 50.1156C302.094 50.1156 300.344 43.6169 303.121 38.0803C305.897 32.5413 312.149 30.06 312.149 30.06C312.149 30.06 313.899 36.5611 311.122 42.0977Z" fill="#9FBDC9"/>
<path d="M322.354 67.6827C318.698 72.684 312.121 74.0922 312.121 74.0922C312.121 74.0922 311.472 67.3934 315.126 62.3921C318.782 57.3909 325.36 55.9826 325.36 55.9826C325.36 55.9826 326.01 62.6815 322.354 67.6827Z" fill="#9FBDC9"/>
<path d="M287.602 23.5152C291.593 28.2536 291.405 34.979 291.405 34.979C291.405 34.979 284.746 34.0241 280.755 29.2881C276.764 24.5521 276.952 17.8243 276.952 17.8243C276.952 17.8243 283.611 18.7768 287.602 23.5152Z" fill="#9FBDC9"/>
<path d="M291.483 45.1191C297.658 45.5845 302.329 50.4266 302.329 50.4266C302.329 50.4266 296.988 54.5164 290.813 54.0534C284.639 53.588 279.968 48.7458 279.968 48.7458C279.968 48.7458 285.309 44.6561 291.483 45.1191Z" fill="#9FBDC9"/>
<path d="M301.23 68.6424C307.404 69.1078 312.075 73.9499 312.075 73.9499C312.075 73.9499 306.734 78.0396 300.56 77.5766C294.385 77.1112 289.714 72.2691 289.714 72.2691C289.714 72.2691 295.055 68.177 301.23 68.6424Z" fill="#9FBDC9"/>
<path d="M320.556 123.598L319.296 123.571C319.298 123.424 319.573 108.729 315.844 90.1494C313.656 79.2475 310.537 69.163 306.575 60.1732C301.632 48.9554 295.351 39.4207 287.913 31.8368L288.814 30.9518C296.363 38.649 302.731 48.3139 307.737 59.6789C311.735 68.7578 314.883 78.934 317.088 89.93C320.838 108.64 320.559 123.451 320.556 123.598Z" fill="#9FBDC9"/>
<path d="M549.119 308.799C552.057 311.293 553.942 314.206 554.749 315.602C554.817 315.512 554.886 315.423 554.954 315.332C556.723 313.024 558.784 310.465 561.117 307.777C559.873 306.918 556.998 304.734 554.679 301.447C551.63 297.123 550.698 292.532 550.698 292.532C550.698 292.532 554.708 294.95 557.757 299.272C559.998 302.452 561.095 305.775 561.519 307.311C563.462 305.09 565.585 302.785 567.884 300.46C566.882 299.281 564.701 296.46 563.32 292.742C561.476 287.781 561.751 283.106 561.751 283.106C561.751 283.106 565.011 286.47 566.853 291.427C568.14 294.893 568.395 298.218 568.431 299.908C570.738 297.598 573.216 295.278 575.85 293.004C575.04 291.69 573.312 288.565 572.512 284.671C571.447 279.489 572.43 274.907 572.43 274.907C572.43 274.907 575.139 278.729 576.204 283.911C576.937 287.482 576.701 290.767 576.481 292.464C578.267 290.943 580.125 289.448 582.051 287.994C581.798 286.46 581.386 282.927 582.111 279.038C583.083 273.836 585.724 269.968 585.724 269.968C585.724 269.968 586.79 274.531 585.818 279.732C585.228 282.893 584.023 285.558 583.167 287.166C584.529 286.166 585.924 285.187 587.351 284.237C588.474 282.804 590.431 280.619 593.09 278.801C597.454 275.814 602.058 274.948 602.058 274.948C602.058 274.948 599.583 278.927 595.218 281.912C592.588 283.711 589.875 284.741 588.13 285.273C586.652 286.255 585.211 287.268 583.803 288.305C585.522 288.346 588.785 288.606 592.186 289.86C597.148 291.69 600.518 294.943 600.518 294.943C600.518 294.943 595.845 295.228 590.882 293.398C587.115 292.009 584.266 289.797 583.112 288.816C581.172 290.27 579.304 291.767 577.506 293.294C579.024 293.764 582.314 294.967 585.425 297.314C589.648 300.499 591.935 304.589 591.935 304.589C591.935 304.589 587.378 303.511 583.155 300.325C579.947 297.904 577.858 294.965 577.038 293.692C574.324 296.016 571.777 298.399 569.41 300.764C570.984 301.107 574.334 302.016 577.607 304.058C582.092 306.86 584.731 310.731 584.731 310.731C584.731 310.731 580.097 310.06 575.611 307.258C572.232 305.148 569.902 302.433 568.957 301.22C566.634 303.564 564.486 305.891 562.527 308.131C564.132 308.423 567.479 309.216 570.789 311.119C575.373 313.757 578.149 317.528 578.149 317.528C578.149 317.528 573.493 317.024 568.909 314.389C565.501 312.428 563.091 309.841 562.081 308.642C559.781 311.295 557.747 313.817 556 316.096C555.913 316.209 555.826 316.323 555.74 316.436C556.764 316.716 560.632 317.895 564.255 320.632C568.477 323.817 570.765 327.907 570.765 327.907C570.765 327.907 566.207 326.829 561.984 323.644C558.359 320.907 556.161 317.509 555.612 316.602C548.483 325.978 544.6 333.186 544.561 333.258L543.419 332.646C543.457 332.573 547.297 325.443 554.339 316.135C552.845 315.575 549.64 314.186 546.677 311.674C542.645 308.252 540.594 304.039 540.594 304.039C540.594 304.039 545.087 305.377 549.119 308.799Z" fill="#D5CFCC"/>
<path d="M482.102 304.999C487.966 306.853 492.535 309.974 494.584 311.531C494.63 311.358 494.676 311.182 494.722 311.008C495.9 306.518 497.356 301.481 499.127 296.084C496.765 295.589 491.191 294.152 485.749 290.745C478.593 286.267 474.389 280.087 474.389 280.087C474.389 280.087 481.784 281.164 488.94 285.642C494.203 288.936 497.867 293.149 499.438 295.148C500.925 290.68 502.629 285.975 504.577 281.133C502.371 280.019 497.423 277.212 493.095 272.594C487.322 266.436 484.837 259.382 484.837 259.382C484.837 259.382 491.711 262.317 497.484 268.476C501.516 272.78 503.943 277.516 505.039 279.98C507.008 275.158 509.221 270.212 511.694 265.237C509.691 263.805 505.218 260.274 501.636 255.037C496.871 248.068 495.488 240.72 495.488 240.72C495.488 240.72 501.834 244.67 506.599 251.639C509.884 256.44 511.559 261.422 512.284 264.056C513.974 260.713 515.784 257.364 517.722 254.036C516.401 251.936 513.615 246.992 512.284 240.819C510.506 232.565 512.002 225.239 512.002 225.239C512.002 225.239 516.386 231.297 518.165 239.548C519.247 244.564 519.117 249.233 518.849 252.129C520.235 249.814 521.684 247.511 523.2 245.232C523.971 242.43 525.499 238.008 528.288 233.686C532.867 226.594 539.107 222.478 539.107 222.478C539.107 222.478 537.921 229.862 533.342 236.954C530.582 241.227 527.222 244.417 524.986 246.281C523.417 248.637 521.92 251.019 520.491 253.414C523.043 252.411 528.008 250.778 533.788 250.523C542.218 250.151 549.186 252.857 549.186 252.857C549.186 252.857 542.483 256.165 534.053 256.537C527.649 256.819 522.094 255.329 519.789 254.593C517.832 257.928 516.008 261.29 514.304 264.644C516.827 264.398 522.412 264.135 528.437 265.666C536.617 267.747 542.505 272.351 542.505 272.351C542.505 272.351 535.133 273.581 526.955 271.5C520.739 269.92 515.851 266.884 513.858 265.517C511.299 270.615 509.021 275.693 506.999 280.639C509.527 280.171 515.017 279.438 521.093 280.424C529.425 281.775 535.696 285.84 535.696 285.84C535.696 285.84 528.461 287.716 520.132 286.366C513.858 285.348 508.751 282.792 506.613 281.594C504.642 286.479 502.916 291.23 501.415 295.737C503.957 295.175 509.37 294.273 515.417 295.03C523.793 296.079 530.206 299.913 530.206 299.913C530.206 299.913 523.043 302.05 514.67 301.001C508.445 300.222 503.302 297.902 501.075 296.761C499.327 302.086 497.891 307.056 496.727 311.488C496.669 311.71 496.611 311.929 496.553 312.151C498.231 311.929 504.654 311.278 511.674 313.063C519.855 315.144 525.743 319.747 525.743 319.747C525.743 319.747 518.37 320.977 510.192 318.896C503.169 317.109 497.838 313.465 496.469 312.469C491.764 330.671 490.499 343.675 490.487 343.808L488.429 343.613C488.441 343.482 489.689 330.618 494.309 312.566C491.764 312.665 486.192 312.602 480.282 310.733C472.235 308.187 466.619 303.255 466.619 303.255C466.619 303.255 474.057 302.452 482.102 304.999Z" fill="#D5CFCC"/>
<path d="M523.827 201.431C523.914 201.769 523.989 202.104 524.046 202.439C524.292 203.756 524.362 205.068 524.268 206.348C524.222 207.035 524.126 207.718 523.986 208.388C523.709 209.726 523.251 211.012 522.644 212.215C522.333 212.828 521.983 213.418 521.593 213.987C520.855 215.06 519.983 216.044 518.988 216.908C518.474 217.356 517.922 217.776 517.344 218.149C516.23 218.883 515.008 219.478 513.69 219.905C513.369 220.016 513.037 220.11 512.702 220.194C512.364 220.281 512.029 220.356 511.694 220.414C510.378 220.66 509.067 220.73 507.788 220.636C507.101 220.59 506.419 220.493 505.749 220.354C504.411 220.076 503.126 219.618 501.924 219.01C501.311 218.699 500.721 218.35 500.152 217.959C499.08 217.221 498.096 216.348 497.233 215.352C496.785 214.839 496.366 214.289 495.992 213.708C495.26 212.594 494.664 211.371 494.238 210.052C494.127 209.731 494.033 209.398 493.946 209.063C493.859 208.726 493.785 208.391 493.727 208.055C493.481 206.739 493.411 205.427 493.505 204.146C493.551 203.459 493.647 202.777 493.787 202.106C494.064 200.768 494.522 199.483 495.129 198.279C495.44 197.667 495.79 197.076 496.18 196.507C496.918 195.434 497.79 194.45 498.786 193.587C499.299 193.138 499.849 192.719 500.429 192.345C501.543 191.612 502.765 191.016 504.083 190.59C504.404 190.479 504.734 190.385 505.071 190.3C505.409 190.213 505.744 190.139 506.079 190.081C507.395 189.835 508.706 189.765 509.986 189.859C510.672 189.905 511.355 190.001 512.025 190.141C513.362 190.418 514.647 190.876 515.849 191.484C516.462 191.795 517.052 192.145 517.621 192.536C518.693 193.273 519.677 194.146 520.54 195.142C520.988 195.656 521.407 196.206 521.781 196.787C522.514 197.901 523.109 199.123 523.535 200.443C523.649 200.763 523.743 201.094 523.827 201.431Z" fill="#CDDDE3"/>
<path d="M514.223 204.951L522.249 206.067L524.273 206.35C524.228 207.037 524.131 207.719 523.991 208.39L521.967 208.107L513.816 206.974L522.649 212.216C522.338 212.829 521.989 213.42 521.598 213.989L519.844 212.947L512.873 208.814L517.761 215.281L518.995 216.909C518.482 217.358 517.93 217.777 517.351 218.151L516.125 216.526L511.16 209.955L513.7 219.906C513.38 220.017 513.047 220.111 512.712 220.196C512.374 220.283 512.039 220.357 511.704 220.415L509.195 210.584L508.08 218.619L507.798 220.639C507.111 220.594 506.429 220.497 505.759 220.357L506.036 218.334L507.171 210.176L502.973 217.259L501.931 219.014C501.319 218.703 500.729 218.353 500.16 217.963L501.196 216.21L505.332 209.234L498.868 214.124L497.241 215.359C496.793 214.845 496.373 214.295 496 213.714L497.624 212.487L504.192 207.519L494.245 210.061C494.134 209.74 494.04 209.407 493.954 209.072C493.867 208.734 493.792 208.399 493.734 208.064L503.561 205.554L495.53 204.437L493.51 204.155C493.556 203.468 493.652 202.785 493.792 202.115L495.814 202.392L503.963 203.531L496.884 199.33L495.135 198.288C495.446 197.676 495.795 197.085 496.185 196.516L504.905 201.693L500.018 195.226L498.788 193.596C499.302 193.147 499.851 192.728 500.432 192.354L501.659 193.979L506.624 200.55L504.084 190.598C504.404 190.487 504.734 190.393 505.072 190.309C505.409 190.222 505.744 190.147 506.079 190.089L508.588 199.921L509.704 191.886L509.986 189.865C510.673 189.911 511.355 190.007 512.025 190.147L511.743 192.173L510.61 200.328L514.809 193.246L515.85 191.49C516.462 191.802 517.053 192.151 517.621 192.542L516.58 194.297L512.444 201.274L518.908 196.383L520.54 195.149C520.988 195.662 521.408 196.212 521.781 196.793L520.154 198.028L513.592 202.99L523.538 200.449C523.649 200.77 523.743 201.102 523.828 201.437C523.912 201.773 523.989 202.11 524.047 202.445L514.223 204.951Z" fill="#A7C3CD"/>
<path d="M508.889 218.642C516.282 218.642 522.275 212.646 522.275 205.249C522.275 197.852 516.282 191.856 508.889 191.856C501.496 191.856 495.503 197.852 495.503 205.249C495.503 212.646 501.496 218.642 508.889 218.642Z" fill="#88AEBC"/>
<path d="M508.887 217.887C515.863 217.887 521.519 212.228 521.519 205.248C521.519 198.269 515.863 192.61 508.887 192.61C501.911 192.61 496.255 198.269 496.255 205.248C496.255 212.228 501.911 217.887 508.887 217.887Z" fill="#B0CAD3"/>
<path d="M505.214 212.099L503.674 213.862L501.435 211.904L502.907 210.221C501.404 208.735 500.237 206.961 499.798 205.538L503.394 203.859C503.9 205.396 504.951 207.016 506.176 208.084C507.241 209.015 507.815 209.126 508.15 208.745C509.371 207.346 502.24 203.1 505.862 198.952C507.431 197.156 510.051 196.787 512.977 198.699L514.491 196.968L516.73 198.926L515.245 200.626C516.322 201.764 517.202 203.066 517.665 204.368L514.163 206.1C513.553 204.585 512.758 203.411 511.789 202.565C510.692 201.607 510.066 201.619 509.733 202C508.566 203.336 515.686 207.597 512.102 211.697C510.593 213.414 508.051 213.823 505.214 212.099Z" fill="#8AB0BD"/>
<path d="M337.868 309.055C337.955 309.392 338.03 309.728 338.087 310.063C338.333 311.38 338.403 312.691 338.309 313.972C338.263 314.659 338.167 315.341 338.027 316.012C337.75 317.35 337.292 318.635 336.685 319.839C336.374 320.451 336.024 321.042 335.634 321.611C334.896 322.684 334.021 323.668 333.029 324.531C332.515 324.98 331.966 325.399 331.385 325.773C330.271 326.506 329.049 327.102 327.731 327.529C327.41 327.64 327.08 327.734 326.743 327.818C326.405 327.905 326.07 327.98 325.735 328.037C324.419 328.283 323.108 328.353 321.829 328.259C321.142 328.213 320.46 328.117 319.79 327.977C318.452 327.7 317.167 327.242 315.965 326.634C315.353 326.323 314.762 325.973 314.193 325.583C313.121 324.845 312.137 323.972 311.275 322.976C310.826 322.462 310.407 321.91 310.033 321.331C309.301 320.217 308.705 318.995 308.279 317.676C308.168 317.355 308.074 317.022 307.989 316.687C307.903 316.349 307.828 316.014 307.77 315.679C307.524 314.362 307.454 313.051 307.548 311.77C307.594 311.083 307.691 310.4 307.83 309.73C308.108 308.392 308.566 307.107 309.173 305.903C309.484 305.291 309.833 304.7 310.224 304.131C310.961 303.058 311.834 302.074 312.829 301.211C313.342 300.762 313.892 300.343 314.473 299.969C315.586 299.236 316.808 298.64 318.127 298.213C318.447 298.102 318.78 298.008 319.115 297.921C319.452 297.835 319.787 297.76 320.122 297.702C321.438 297.456 322.749 297.386 324.029 297.48C324.716 297.526 325.398 297.622 326.068 297.762C327.406 298.04 328.69 298.498 329.893 299.108C330.505 299.419 331.096 299.769 331.664 300.159C332.737 300.897 333.72 301.77 334.583 302.766C335.031 303.28 335.451 303.829 335.824 304.411C336.557 305.525 337.152 306.747 337.579 308.066C337.687 308.387 337.781 308.717 337.868 309.055Z" fill="#CDDDE3"/>
<path d="M328.263 312.571L336.288 313.688L338.313 313.97C338.267 314.657 338.171 315.34 338.031 316.01L336.006 315.728L327.855 314.595L336.688 319.837C336.378 320.449 336.028 321.04 335.638 321.609L333.883 320.568L326.913 316.434L331.801 322.902L333.035 324.53C332.521 324.978 331.972 325.398 331.391 325.771L330.164 324.146L325.199 317.575L327.74 327.527C327.419 327.638 327.089 327.732 326.751 327.816C326.414 327.903 326.079 327.978 325.744 328.036L323.235 318.204L322.119 326.239L321.837 328.26C321.15 328.214 320.468 328.118 319.798 327.978L320.075 325.955L321.213 317.797L317.014 324.879L315.973 326.635C315.361 326.324 314.771 325.974 314.202 325.583L315.238 323.83L319.374 316.854L312.91 321.744L311.283 322.979C310.835 322.465 310.416 321.913 310.042 321.334L311.666 320.107L318.234 315.14L308.287 317.681C308.177 317.36 308.082 317.028 307.998 316.693C307.911 316.355 307.837 316.02 307.779 315.685L317.605 313.174L309.574 312.058L307.555 311.776C307.6 311.088 307.697 310.406 307.837 309.736L309.859 310.013L318.007 311.151L310.929 306.95L309.179 305.909C309.49 305.296 309.839 304.705 310.23 304.136L318.95 309.314L314.062 302.846L312.833 301.216C313.346 300.768 313.896 300.348 314.477 299.974L315.703 301.6L320.668 308.171L318.128 298.219C318.449 298.108 318.781 298.014 319.116 297.927C319.454 297.84 319.789 297.765 320.124 297.708L322.632 307.539L323.748 299.504L324.03 297.483C324.717 297.529 325.399 297.626 326.069 297.765L325.787 299.791L324.655 307.946L328.853 300.864L329.894 299.109C330.506 299.42 331.097 299.769 331.666 300.16L330.625 301.915L326.489 308.892L332.953 304.001L334.584 302.767C335.033 303.28 335.452 303.83 335.826 304.411L334.199 305.646L327.636 310.609L337.583 308.067C337.693 308.388 337.787 308.718 337.874 309.056C337.961 309.393 338.036 309.728 338.094 310.064L328.263 312.571Z" fill="#A7C3CD"/>
<path d="M322.926 326.263C330.319 326.263 336.312 320.266 336.312 312.87C336.312 305.473 330.319 299.477 322.926 299.477C315.533 299.477 309.54 305.473 309.54 312.87C309.54 320.266 315.533 326.263 322.926 326.263Z" fill="#88AEBC"/>
<path d="M322.926 325.508C329.902 325.508 335.557 319.85 335.557 312.87C335.557 305.89 329.902 300.232 322.926 300.232C315.949 300.232 310.294 305.89 310.294 312.87C310.294 319.85 315.949 325.508 322.926 325.508Z" fill="#B0CAD3"/>
<path d="M319.253 319.721L317.713 321.483L315.474 319.525L316.947 317.842C315.443 316.357 314.276 314.582 313.837 313.159L317.433 311.481C317.94 313.017 318.99 314.637 320.215 315.706C321.28 316.636 321.854 316.747 322.189 316.366C323.411 314.968 316.279 310.721 319.901 306.574C321.47 304.777 324.09 304.408 327.016 306.32L328.53 304.589L330.769 306.547L329.284 308.247C330.362 309.385 331.241 310.687 331.704 311.987L328.202 313.719C327.592 312.204 326.797 311.032 325.828 310.183C324.731 309.226 324.105 309.238 323.772 309.619C322.606 310.955 329.725 315.216 326.141 319.318C324.635 321.035 322.09 321.445 319.253 319.721Z" fill="#8AB0BD"/>
<path d="M433.968 202.635C434.231 202.14 434.503 201.658 434.797 201.197C435.93 199.362 437.265 197.727 438.762 196.305C439.562 195.535 440.413 194.829 441.305 194.185C443.084 192.892 445.017 191.86 447.046 191.086C448.08 190.693 449.135 190.37 450.213 190.117C452.252 189.639 454.356 189.415 456.472 189.463C457.569 189.488 458.677 189.584 459.774 189.765C461.89 190.098 463.992 190.713 466.021 191.634C466.522 191.851 467.019 192.097 467.513 192.36C468.007 192.622 468.489 192.895 468.949 193.189C470.784 194.322 472.418 195.658 473.84 197.156C474.608 197.956 475.315 198.808 475.958 199.7C477.25 201.479 478.282 203.413 479.055 205.444C479.448 206.478 479.771 207.534 480.024 208.612C480.501 210.652 480.725 212.758 480.677 214.875C480.653 215.972 480.557 217.081 480.376 218.178C480.043 220.296 479.429 222.398 478.508 224.429C478.291 224.93 478.045 225.427 477.783 225.921C477.52 226.416 477.248 226.898 476.954 227.359C475.821 229.194 474.486 230.829 472.989 232.251C472.189 233.021 471.338 233.727 470.446 234.371C468.667 235.664 466.735 236.696 464.705 237.47C463.671 237.863 462.616 238.186 461.538 238.439C459.499 238.917 457.395 239.141 455.279 239.093C454.182 239.068 453.074 238.972 451.977 238.791C449.861 238.458 447.759 237.843 445.73 236.922C445.229 236.705 444.732 236.459 444.238 236.196C443.744 235.934 443.262 235.661 442.802 235.367C440.967 234.234 439.333 232.898 437.911 231.4C437.143 230.6 436.436 229.748 435.793 228.856C434.501 227.077 433.469 225.143 432.696 223.112C432.303 222.078 431.98 221.021 431.727 219.944C431.25 217.904 431.026 215.798 431.074 213.681C431.098 212.584 431.194 211.475 431.375 210.38C431.708 208.263 432.322 206.16 433.243 204.13C433.46 203.626 433.708 203.129 433.968 202.635Z" fill="#CDDDE3"/>
<path d="M449.206 208.854L440.865 198.832L438.763 196.305C439.563 195.535 440.414 194.829 441.306 194.185L443.407 196.712L451.882 206.888L447.044 191.084C448.078 190.691 449.134 190.368 450.211 190.115L451.173 193.254L454.995 205.724L456.176 192.733L456.47 189.461C457.567 189.485 458.676 189.582 459.772 189.762L459.476 193.025L458.276 206.223L466.022 191.631C466.523 191.848 467.02 192.094 467.514 192.357C468.008 192.62 468.49 192.892 468.95 193.187L461.298 207.602L471.319 199.251L473.843 197.153C474.612 197.954 475.318 198.805 475.961 199.697L473.443 201.805L463.265 210.281L475.923 206.401L479.061 205.439C479.454 206.473 479.777 207.53 480.03 208.608L476.899 209.572L464.429 213.394L477.412 214.576L480.683 214.87C480.659 215.967 480.562 217.076 480.382 218.174L477.121 217.875L463.93 216.674L478.514 224.424C478.297 224.926 478.051 225.422 477.788 225.917C477.526 226.411 477.253 226.893 476.959 227.354L462.551 219.698L470.898 229.724L472.994 232.249C472.194 233.018 471.344 233.725 470.452 234.369L468.345 231.849L459.881 221.668L463.759 234.332L464.713 237.467C463.679 237.86 462.624 238.183 461.546 238.437L456.769 222.832L455.588 235.823L455.287 239.093C454.19 239.068 453.082 238.972 451.985 238.791L452.284 235.528L453.484 222.333L445.738 236.925C445.237 236.708 444.74 236.462 444.246 236.199C443.752 235.936 443.27 235.664 442.81 235.369L450.462 220.954L440.441 229.305L437.917 231.403C437.148 230.602 436.442 229.751 435.799 228.859L438.324 226.756L448.495 218.277L435.837 222.157L432.699 223.119C432.306 222.085 431.983 221.029 431.73 219.951L434.868 218.989L447.338 215.169L434.355 213.985L431.077 213.686C431.101 212.589 431.198 211.48 431.378 210.385L434.649 210.679L447.828 211.882L433.244 204.132C433.461 203.63 433.707 203.134 433.969 202.639C434.232 202.145 434.504 201.663 434.798 201.202L449.206 208.854Z" fill="#A7C3CD"/>
<path d="M455.878 235.82C467.77 235.82 477.411 226.175 477.411 214.277C477.411 202.379 467.77 192.733 455.878 192.733C443.986 192.733 434.346 202.379 434.346 214.277C434.346 226.175 443.986 235.82 455.878 235.82Z" fill="#88AEBC"/>
<path d="M455.879 234.61C467.103 234.61 476.201 225.506 476.201 214.277C476.201 203.047 467.103 193.944 455.879 193.944C444.655 193.944 435.557 203.047 435.557 214.277C435.557 225.506 444.655 234.61 455.879 234.61Z" fill="#B0CAD3"/>
<path d="M467.662 210.103L471.405 209.673L471.95 214.429L468.375 214.839C468.561 218.234 468.026 221.612 467.009 223.778L460.916 221.88C461.974 219.502 462.478 216.437 462.179 213.84C461.919 211.581 461.355 210.826 460.545 210.918C457.578 211.258 461.47 224.038 452.671 225.048C448.86 225.485 445.342 223.088 443.932 217.645L440.256 218.067L439.711 213.312L443.319 212.897C443.269 210.375 443.63 207.872 444.488 205.825L450.528 207.559C449.615 210.021 449.294 212.28 449.53 214.337C449.798 216.664 450.557 217.33 451.367 217.236C454.199 216.91 450.34 204.127 459.038 203.129C462.68 202.714 466.151 204.981 467.662 210.103Z" fill="#8AB0BD"/>
<path d="M524.669 385.091H120.68C113.213 385.091 107.161 379.036 107.161 371.566C107.161 364.095 113.213 358.04 120.68 358.04H524.669C532.136 358.04 538.188 364.095 538.188 371.566C538.185 379.036 532.133 385.091 524.669 385.091Z" fill="#E6E6E9"/>
<path d="M486.271 340.989C475.61 340.989 466.621 348.141 463.834 357.912H508.707C505.921 348.144 496.931 340.989 486.271 340.989Z" fill="#DCDCE0"/>
<path d="M595.631 332.983C579.929 332.983 566.686 343.521 562.581 357.912H628.684C624.577 343.521 611.334 332.983 595.631 332.983Z" fill="#DCDCE0"/>
<path d="M493.057 357.915C498.125 340.369 518.209 327.263 542.214 327.263C566.219 327.263 586.303 340.369 591.371 357.915H493.057Z" fill="#DCDCE0"/>
<path d="M584.815 159.646C592.829 159.646 599.587 165.024 601.682 172.369H567.949C570.044 165.024 576.802 159.646 584.815 159.646Z" fill="white"/>
<path d="M502.606 153.627C514.411 153.627 524.365 161.549 527.452 172.369H477.76C480.847 161.549 490.801 153.627 502.606 153.627Z" fill="white"/>
<path d="M579.715 172.366C575.904 159.176 560.807 149.325 542.76 149.325C524.713 149.325 509.616 159.176 505.805 172.366H579.715Z" fill="white"/>
<path d="M513.335 340.782C523.833 340.782 532.688 347.826 535.433 357.45H491.238C493.983 347.828 502.836 340.782 513.335 340.782Z" fill="#C0D4DB"/>
<path d="M405.629 332.896C421.095 332.896 434.136 343.275 438.181 357.449H373.078C377.119 343.275 390.163 332.896 405.629 332.896Z" fill="#C0D4DB"/>
<path d="M506.651 357.449C501.66 340.169 481.879 327.261 458.236 327.261C434.592 327.261 414.812 340.169 409.821 357.449H506.651Z" fill="#C0D4DB"/>
<path d="M569.742 170.628C573.524 170.628 576.715 173.167 577.703 176.632H561.781C562.769 173.167 565.96 170.628 569.742 170.628Z" fill="#898D9A"/>
<path d="M530.937 167.787C536.509 167.787 541.209 171.527 542.665 176.632H519.209C520.667 171.527 525.365 167.787 530.937 167.787Z" fill="#898D9A"/>
<path d="M567.334 176.635C565.536 170.408 558.409 165.759 549.892 165.759C541.374 165.759 534.247 170.408 532.449 176.635H567.334Z" fill="#898D9A"/>
<path d="M505.45 126.832C465.627 153.379 425.085 192.374 390.158 225.837C375.058 210.394 359.219 196.637 343.386 182.053C379.98 141.3 417.238 103.031 457.273 65.5701C475.805 85.6788 490.731 103.632 505.45 126.832Z" fill="#88AEBC"/>
<path d="M390.293 221.93C376.45 207.816 361.909 195.253 347.448 181.882C383.027 142.971 418.492 105.732 457.074 69.6236C474.14 88.1456 487.998 104.719 501.553 126.075C464.251 149.407 422.283 190.65 390.293 221.93Z" fill="#D2E0E6"/>
<path d="M491.876 118.182C484.04 104.432 471.633 92.0209 460.968 80.2919C457.801 82.6864 455.195 82.6623 452.18 80.0507C419.998 110.89 386.017 142.26 357.58 176.521C360.168 179.514 360.101 182.159 357.847 185.347C367.719 193.898 377.316 202.741 386.499 212.034C389.589 209.678 392.086 209.507 395.161 211.986C422.003 188.926 461.529 141.809 490.572 127.69C488.728 124.047 488.882 121.093 491.876 118.182Z" fill="#97B9C5"/>
<path d="M449.621 122.807C453.357 126.989 455.565 131.995 456.473 137.594C458.392 149.391 452.622 160.546 444.02 169.097C435.418 177.648 424.782 182.591 413.064 179.868C407.492 178.574 403.055 176.273 399.109 172.326C395.166 168.378 392.833 164.144 391.621 158.392C389.068 146.294 394.07 133.254 402.859 124.693C411.649 116.135 424.187 111.464 436.091 114.452C441.742 115.87 445.885 118.628 449.621 122.807Z" fill="#D2E0E6"/>
<path d="M452.974 119.484C449.587 115.631 449.498 109.646 453.229 105.978C456.962 102.31 462.629 102.655 466.044 106.564C469.462 110.473 469.512 116.774 465.69 120.415C461.867 124.061 456.36 123.34 452.974 119.484Z" fill="#B4CCD5"/>
<path d="M380.509 190.353C376.838 186.883 377.409 181.265 380.861 177.689C384.31 174.112 390.21 173.582 393.921 177.223C397.633 180.864 397.04 186.493 393.415 189.82C389.79 193.148 384.179 193.823 380.509 190.353Z" fill="#B4CCD5"/>
<path d="M438.181 157.606C439.348 159.005 440.423 160.143 441.563 161.433C440.092 162.907 438.622 164.382 437.135 165.841C436.051 164.66 434.968 163.476 433.898 162.282C430.787 164.891 427.319 167.081 423.33 168.036C422.421 165.318 421.428 162.723 420.611 159.914C423.79 159.487 427.984 156.622 429.948 154.959C431.657 153.509 432.725 151.611 431.891 150.739C428.837 147.536 419.387 162.509 410.199 153.473C406.223 149.562 406.922 142.441 411.079 138.156C409.71 136.699 408.556 135.662 407.271 134.368C408.84 132.863 410.383 131.322 411.935 129.795C413.154 130.996 414.371 132.2 415.584 133.405C418.143 131.377 420.797 129.767 423.92 128.771C425.041 131.474 426.236 134.078 427.27 136.858C424.8 137.341 421.235 140.027 419.787 141.25C418.148 142.631 417.073 144.782 418.056 145.701C421.498 148.918 430.117 133.413 438.579 142.735C442.117 146.639 441.476 153.324 438.181 157.606Z" fill="#A9C5CF"/>
<path d="M455.589 85.3268C421.755 119.185 389.662 165.39 361.986 205.068C344.149 192.895 325.916 182.521 307.526 171.332C335.402 124.179 364.42 79.332 396.319 34.7307C418.439 50.8051 436.6 65.4712 455.589 85.3268Z" fill="#88AEBC"/>
<path d="M361.354 201.209C345.008 190.093 328.284 180.633 311.478 170.362C338.722 125.216 366.181 81.7288 396.92 38.7431C417.293 53.5491 434.135 67.0747 451.619 85.3483C419.629 115.561 386.578 164.252 361.354 201.209Z" fill="#D2E0E6"/>
<path d="M440.581 79.5151C430.198 67.5738 415.595 57.8414 402.835 48.4393C400.201 51.4102 397.641 51.8997 394.171 49.9295C368.671 86.4961 341.514 123.933 320.36 163.119C323.486 165.544 323.939 168.151 322.355 171.72C333.715 178.163 344.861 184.947 355.688 192.253C358.255 189.338 360.67 188.677 364.172 190.502C385.962 162.615 415.464 108.645 441.166 89.0932C438.648 85.8812 438.219 82.9586 440.581 79.5151Z" fill="#97B9C5"/>
<path d="M400.061 92.3559C404.546 95.7198 407.692 100.195 409.685 105.508C413.881 116.699 410.415 128.771 403.662 138.843C396.909 148.918 387.449 155.858 375.425 155.491C369.708 155.318 364.904 153.934 360.26 150.837C355.618 147.744 352.499 144.049 350.181 138.648C345.303 127.288 347.645 113.516 354.582 103.398C361.518 93.2795 372.894 86.2358 385.154 86.8242C390.972 87.1039 395.576 88.992 400.061 92.3559Z" fill="#D2E0E6"/>
<path d="M402.693 88.4399C398.617 85.3268 397.352 79.4767 400.292 75.1458C403.233 70.8173 408.856 70.0384 412.975 73.2022C417.091 76.3635 418.381 82.5319 415.346 86.8556C412.312 91.1793 406.768 91.553 402.693 88.4399Z" fill="#B4CCD5"/>
<path d="M345.558 172.173C341.278 169.494 340.736 163.871 343.416 159.687C346.096 155.503 351.777 153.823 356.129 156.663C360.484 159.504 361.007 165.139 358.106 169.116C355.206 173.09 349.841 174.852 345.558 172.173Z" fill="#B4CCD5"/>
<path d="M395.676 128.727C397.096 129.868 398.371 130.774 399.742 131.814C398.59 133.548 397.438 135.284 396.267 137.008C394.97 136.063 393.678 135.115 392.394 134.155C389.853 137.326 386.884 140.155 383.163 141.874C381.738 139.388 380.254 137.039 378.902 134.447C381.934 133.405 385.484 129.769 387.084 127.751C388.475 125.995 389.147 123.924 388.161 123.232C384.539 120.692 378.215 137.23 367.429 130.179C362.761 127.126 362.047 120.005 365.282 114.987C363.655 113.827 362.317 113.039 360.804 112.021C362.047 110.237 363.257 108.423 364.479 106.622C365.911 107.56 367.34 108.5 368.764 109.446C370.878 106.955 373.161 104.852 376.029 103.263C377.658 105.693 379.343 108.011 380.902 110.536C378.574 111.493 375.609 114.83 374.426 116.311C373.088 117.989 372.459 120.309 373.604 121.015C377.61 123.494 383.016 106.595 393.143 114.071C397.383 117.201 398.067 123.878 395.676 128.727Z" fill="#A9C5CF"/>
<path d="M433.294 19.6184L290.09 267.371L311.054 279.501L454.258 31.7478L433.294 19.6184ZM437.678 36.3439C436.249 35.5168 435.866 33.5105 436.818 31.8635C437.77 30.2166 439.696 29.5534 441.125 30.3805C442.554 31.2076 442.942 33.2091 441.99 34.8561C441.038 36.5031 439.107 37.171 437.678 36.3439Z" fill="#FFD3D1"/>
<path d="M453.665 55.4858L430.32 41.9795C430.146 41.8782 430.086 41.6564 430.187 41.4827L430.973 40.1251C431.074 39.9515 431.296 39.8912 431.47 39.9925L454.814 53.4988C454.988 53.6001 455.048 53.8219 454.947 53.9955L454.161 55.3532C454.06 55.5268 453.838 55.5871 453.665 55.4858Z" fill="#FF9491"/>
<path d="M455.922 64.9841L432.577 51.4779C432.403 51.3766 432.343 51.1547 432.444 50.9811L433.23 49.6235C433.331 49.4499 433.553 49.3896 433.726 49.4909L457.071 62.9971C457.245 63.0984 457.305 63.3203 457.204 63.4939L456.418 64.8515C456.317 65.0251 456.095 65.0854 455.922 64.9841Z" fill="#FF9491"/>
<path d="M452.372 71.1237L429.027 57.6175C428.854 57.5162 428.794 57.2943 428.895 57.1207L429.681 55.7631C429.782 55.5895 430.004 55.5292 430.177 55.6305L453.522 69.1367C453.695 69.238 453.756 69.4599 453.654 69.6335L452.869 70.9911C452.77 71.1647 452.548 71.225 452.372 71.1237Z" fill="#FF9491"/>
<path d="M448.826 77.2632L425.481 63.7569C425.308 63.6556 425.247 63.4338 425.349 63.2602L426.134 61.9025C426.235 61.7289 426.457 61.6686 426.631 61.7699L449.975 75.2762C450.149 75.3775 450.209 75.5993 450.108 75.7729L449.322 77.1306C449.223 77.3042 448.999 77.3645 448.826 77.2632Z" fill="#FF9491"/>
<path d="M445.277 83.4028L421.932 69.8965C421.759 69.7952 421.698 69.5734 421.8 69.3998L422.585 68.0421C422.687 67.8685 422.908 67.8082 423.082 67.9095L446.427 81.4158C446.6 81.5171 446.66 81.7389 446.559 81.9125L445.774 83.2701C445.672 83.4438 445.451 83.5016 445.277 83.4028Z" fill="#FF9491"/>
<path d="M435.92 86.1807L412.575 72.6744C412.402 72.5731 412.342 72.3513 412.443 72.1776L413.228 70.82C413.33 70.6464 413.551 70.5861 413.725 70.6874L437.07 84.1937C437.243 84.295 437.303 84.5168 437.202 84.6904L436.416 86.0481C436.318 86.2217 436.096 86.282 435.92 86.1807Z" fill="#FF9491"/>
<path d="M438.179 95.6789L414.834 82.1726C414.661 82.0713 414.6 81.8495 414.702 81.6759L415.487 80.3182C415.588 80.1446 415.81 80.0843 415.984 80.1856L439.328 93.6919C439.502 93.7932 439.562 94.015 439.461 94.1887L438.675 95.5463C438.576 95.7199 438.355 95.7802 438.179 95.6789Z" fill="#FF9491"/>
<path d="M434.63 101.819L411.285 88.3122C411.112 88.2109 411.051 87.9891 411.153 87.8155L411.938 86.4578C412.04 86.2842 412.261 86.2239 412.435 86.3252L435.78 99.8315C435.953 99.9328 436.013 100.155 435.912 100.328L435.126 101.686C435.028 101.86 434.803 101.92 434.63 101.819Z" fill="#FF9491"/>
<path d="M431.084 107.958L407.739 94.4515C407.565 94.3502 407.505 94.1284 407.606 93.9548L408.392 92.5972C408.493 92.4235 408.715 92.3633 408.889 92.4645L432.233 105.971C432.407 106.072 432.467 106.294 432.366 106.468L431.58 107.825C431.479 107.999 431.257 108.059 431.084 107.958Z" fill="#FF9491"/>
<path d="M427.537 114.097L404.192 100.591C404.018 100.49 403.958 100.268 404.059 100.094L404.845 98.7366C404.946 98.563 405.168 98.5027 405.342 98.604L428.686 112.11C428.86 112.212 428.92 112.433 428.819 112.607L428.033 113.965C427.932 114.138 427.71 114.196 427.537 114.097Z" fill="#FF9491"/>
<path d="M418.18 116.875L394.835 103.369C394.662 103.268 394.601 103.046 394.703 102.872L395.488 101.515C395.589 101.341 395.811 101.281 395.985 101.382L419.329 114.888C419.503 114.99 419.563 115.211 419.462 115.385L418.676 116.743C418.577 116.916 418.353 116.977 418.18 116.875Z" fill="#FF9491"/>
<path d="M420.439 126.374L397.094 112.868C396.921 112.766 396.861 112.544 396.962 112.371L397.747 111.013C397.849 110.84 398.07 110.779 398.244 110.881L421.589 124.387C421.762 124.488 421.822 124.71 421.721 124.884L420.935 126.241C420.837 126.415 420.612 126.475 420.439 126.374Z" fill="#FF9491"/>
<path d="M416.89 132.513L393.545 119.007C393.372 118.906 393.311 118.684 393.412 118.51L394.198 117.153C394.299 116.979 394.521 116.919 394.695 117.02L418.039 130.526C418.213 130.628 418.273 130.85 418.172 131.023L417.386 132.381C417.285 132.554 417.063 132.615 416.89 132.513Z" fill="#FF9491"/>
<path d="M413.342 138.653L389.997 125.146C389.824 125.045 389.763 124.823 389.865 124.65L390.65 123.292C390.752 123.118 390.973 123.058 391.147 123.159L414.492 136.666C414.665 136.767 414.725 136.989 414.624 137.162L413.838 138.52C413.737 138.694 413.515 138.754 413.342 138.653Z" fill="#FF9491"/>
<path d="M409.791 144.792L386.446 131.286C386.273 131.185 386.213 130.963 386.314 130.789L387.1 129.431C387.201 129.258 387.423 129.197 387.596 129.299L410.941 142.805C411.114 142.906 411.174 143.128 411.073 143.302L410.287 144.66C410.189 144.833 409.967 144.891 409.791 144.792Z" fill="#FF9491"/>
<path d="M400.438 147.57L377.094 134.064C376.92 133.963 376.86 133.741 376.961 133.567L377.747 132.21C377.848 132.036 378.07 131.976 378.244 132.077L401.588 145.583C401.761 145.684 401.822 145.906 401.721 146.08L400.935 147.438C400.834 147.611 400.612 147.671 400.438 147.57Z" fill="#FF9491"/>
<path d="M402.697 157.069L379.353 143.562C379.179 143.461 379.119 143.239 379.22 143.066L380.006 141.708C380.107 141.534 380.329 141.474 380.502 141.575L403.847 155.082C404.021 155.183 404.081 155.405 403.98 155.578L403.194 156.936C403.093 157.11 402.871 157.17 402.697 157.069Z" fill="#FF9491"/>
<path d="M399.147 163.208L375.802 149.702C375.628 149.6 375.568 149.379 375.669 149.205L376.455 147.847C376.556 147.674 376.778 147.613 376.951 147.715L400.296 161.221C400.47 161.322 400.53 161.544 400.429 161.718L399.643 163.075C399.544 163.249 399.323 163.309 399.147 163.208Z" fill="#FF9491"/>
<path d="M395.599 169.348L372.254 155.841C372.08 155.74 372.02 155.518 372.121 155.345L372.907 153.987C373.008 153.813 373.23 153.753 373.404 153.854L396.748 167.361C396.922 167.462 396.982 167.684 396.881 167.858L396.095 169.215C395.996 169.389 395.772 169.447 395.599 169.348Z" fill="#FF9491"/>
<path d="M392.051 175.484L368.706 161.978C368.533 161.877 368.472 161.655 368.574 161.481L369.359 160.124C369.461 159.95 369.682 159.89 369.856 159.991L393.201 173.497C393.374 173.599 393.434 173.82 393.333 173.994L392.547 175.352C392.449 175.528 392.225 175.586 392.051 175.484Z" fill="#FF9491"/>
<path d="M382.697 178.265L359.353 164.759C359.179 164.657 359.119 164.435 359.22 164.262L360.006 162.904C360.107 162.731 360.329 162.67 360.502 162.772L383.847 176.278C384.02 176.379 384.081 176.601 383.979 176.775L383.194 178.132C383.092 178.306 382.871 178.366 382.697 178.265Z" fill="#FF9491"/>
<path d="M384.953 187.763L361.609 174.257C361.435 174.156 361.375 173.934 361.476 173.76L362.262 172.403C362.363 172.229 362.585 172.169 362.758 172.27L386.103 185.776C386.276 185.878 386.337 186.099 386.236 186.273L385.45 187.631C385.351 187.804 385.129 187.865 384.953 187.763Z" fill="#FF9491"/>
<path d="M381.404 193.903L358.059 180.397C357.886 180.295 357.825 180.073 357.927 179.9L358.712 178.542C358.814 178.369 359.035 178.308 359.209 178.41L382.554 191.916C382.727 192.017 382.787 192.239 382.686 192.413L381.9 193.77C381.802 193.944 381.578 194.004 381.404 193.903Z" fill="#FF9491"/>
<path d="M377.858 200.042L354.514 186.536C354.34 186.435 354.28 186.213 354.381 186.039L355.167 184.682C355.268 184.508 355.49 184.448 355.663 184.549L379.008 198.055C379.182 198.157 379.242 198.378 379.141 198.552L378.355 199.91C378.256 200.083 378.032 200.141 377.858 200.042Z" fill="#FF9491"/>
<path d="M374.31 206.179L350.965 192.673C350.791 192.572 350.731 192.35 350.832 192.176L351.618 190.819C351.719 190.645 351.941 190.585 352.115 190.686L375.459 204.192C375.633 204.294 375.693 204.516 375.592 204.689L374.806 206.047C374.705 206.22 374.483 206.281 374.31 206.179Z" fill="#FF9491"/>
<path d="M364.955 208.96L341.61 195.453C341.437 195.352 341.377 195.13 341.478 194.957L342.264 193.599C342.365 193.425 342.587 193.365 342.76 193.466L366.105 206.973C366.278 207.074 366.339 207.296 366.237 207.469L365.452 208.827C365.353 209.001 365.129 209.061 364.955 208.96Z" fill="#FF9491"/>
<path d="M367.212 218.458L343.867 204.952C343.694 204.851 343.634 204.629 343.735 204.455L344.52 203.098C344.622 202.924 344.843 202.864 345.017 202.965L368.362 216.471C368.535 216.573 368.595 216.794 368.494 216.968L367.708 218.326C367.61 218.499 367.386 218.56 367.212 218.458Z" fill="#FF9491"/>
<path d="M363.664 224.598L340.319 211.091C340.146 210.99 340.086 210.768 340.187 210.595L340.973 209.237C341.074 209.063 341.296 209.003 341.469 209.104L364.814 222.611C364.987 222.712 365.048 222.934 364.946 223.107L364.161 224.465C364.059 224.639 363.838 224.696 363.664 224.598Z" fill="#FF9491"/>
<path d="M360.117 230.735L336.773 217.228C336.599 217.127 336.539 216.905 336.64 216.732L337.426 215.374C337.527 215.2 337.749 215.14 337.922 215.241L361.267 228.748C361.44 228.849 361.501 229.071 361.399 229.245L360.614 230.602C360.513 230.778 360.291 230.836 360.117 230.735Z" fill="#FF9491"/>
<path d="M356.567 236.874L333.223 223.368C333.049 223.266 332.989 223.045 333.09 222.871L333.876 221.513C333.977 221.34 334.199 221.279 334.372 221.381L357.717 234.887C357.891 234.988 357.951 235.21 357.85 235.384L357.064 236.741C356.965 236.915 356.743 236.975 356.567 236.874Z" fill="#FF9491"/>
<path d="M347.212 239.654L323.867 226.148C323.693 226.047 323.633 225.825 323.734 225.651L324.52 224.294C324.621 224.12 324.843 224.06 325.016 224.161L348.361 237.667C348.535 237.769 348.595 237.99 348.494 238.164L347.708 239.522C347.609 239.695 347.385 239.756 347.212 239.654Z" fill="#FF9491"/>
<path d="M349.472 249.153L326.127 235.647C325.954 235.546 325.893 235.324 325.995 235.15L326.78 233.792C326.881 233.619 327.103 233.559 327.277 233.66L350.621 247.166C350.795 247.267 350.855 247.489 350.754 247.663L349.968 249.021C349.869 249.194 349.645 249.254 349.472 249.153Z" fill="#FF9491"/>
<path d="M345.923 255.292L322.578 241.786C322.405 241.685 322.344 241.463 322.446 241.289L323.231 239.932C323.333 239.758 323.554 239.698 323.728 239.799L347.073 253.305C347.246 253.407 347.306 253.629 347.205 253.802L346.42 255.16C346.318 255.333 346.097 255.391 345.923 255.292Z" fill="#FF9491"/>
<path d="M342.374 261.429L319.029 247.923C318.855 247.822 318.795 247.6 318.896 247.426L319.682 246.069C319.783 245.895 320.005 245.835 320.179 245.936L343.523 259.442C343.697 259.544 343.757 259.766 343.656 259.939L342.87 261.297C342.771 261.47 342.55 261.531 342.374 261.429Z" fill="#FF9491"/>
<path d="M338.827 267.569L315.483 254.063C315.309 253.962 315.249 253.74 315.35 253.566L316.136 252.209C316.237 252.035 316.459 251.975 316.632 252.076L339.977 265.582C340.151 265.684 340.211 265.905 340.11 266.079L339.324 267.437C339.225 267.61 339.001 267.671 338.827 267.569Z" fill="#FF9491"/>
<path d="M329.47 270.349L306.126 256.843C305.952 256.742 305.892 256.52 305.993 256.346L306.779 254.989C306.88 254.815 307.102 254.755 307.275 254.856L330.62 268.362C330.793 268.464 330.854 268.685 330.752 268.859L329.967 270.217C329.866 270.39 329.644 270.448 329.47 270.349Z" fill="#FF9491"/>
<path d="M325.921 276.487L302.577 262.98C302.403 262.879 302.343 262.657 302.444 262.484L303.23 261.126C303.331 260.952 303.553 260.892 303.726 260.993L327.071 274.5C327.245 274.601 327.305 274.823 327.204 274.996L326.418 276.354C326.319 276.53 326.097 276.588 325.921 276.487Z" fill="#FF9491"/>
<path d="M300.304 283.802L149.334 299.925C145.196 300.366 141.482 297.369 141.041 293.229L120.273 98.5438C119.832 94.4034 122.828 90.6874 126.966 90.2461L277.935 74.1259C282.074 73.6846 285.788 76.682 286.229 80.8224L306.997 275.505C307.438 279.645 304.442 283.361 300.304 283.802Z" fill="#FCB2B6"/>
<path d="M278.412 82.9957L128.817 98.9654L149.332 291.337L298.927 275.367L278.412 82.9957Z" fill="white"/>
<path d="M97.8921 92.1752L120.49 304.029" stroke="#C9CCD4" stroke-width="2.1298" stroke-miterlimit="10"/>
<path d="M107.857 91.1117L130.457 302.966" stroke="#C9CCD4" stroke-width="2.1298" stroke-miterlimit="10"/>
<path d="M117.824 90.0458L140.424 301.9" stroke="#C9CCD4" stroke-width="2.1298" stroke-miterlimit="10"/>
<path d="M127.79 88.9827L150.39 300.837" stroke="#C9CCD4" stroke-width="2.1298" stroke-miterlimit="10"/>
<path d="M137.755 87.9189L160.355 299.773" stroke="#C9CCD4" stroke-width="2.1298" stroke-miterlimit="10"/>
<path d="M147.723 86.8533L170.323 298.707" stroke="#C9CCD4" stroke-width="2.1298" stroke-miterlimit="10"/>
<path d="M157.69 85.7898L180.29 297.644" stroke="#C9CCD4" stroke-width="2.1298" stroke-miterlimit="10"/>
<path d="M167.656 84.7261L190.256 296.58" stroke="#C9CCD4" stroke-width="2.1298" stroke-miterlimit="10"/>
<path d="M177.622 83.6606L200.222 295.515" stroke="#C9CCD4" stroke-width="2.1298" stroke-miterlimit="10"/>
<path d="M187.59 82.5971L210.19 294.451" stroke="#C9CCD4" stroke-width="2.1298" stroke-miterlimit="10"/>
<path d="M197.556 81.5336L220.156 293.385" stroke="#C9CCD4" stroke-width="2.1298" stroke-miterlimit="10"/>
<path d="M207.522 80.4677L230.122 292.322" stroke="#C9CCD4" stroke-width="2.1298" stroke-miterlimit="10"/>
<path d="M217.489 79.4042L240.089 291.258" stroke="#C9CCD4" stroke-width="2.1298" stroke-miterlimit="10"/>
<path d="M227.456 78.3385L250.056 290.193" stroke="#C9CCD4" stroke-width="2.1298" stroke-miterlimit="10"/>
<path d="M237.423 77.275L260.023 289.129" stroke="#C9CCD4" stroke-width="2.1298" stroke-miterlimit="10"/>
<path d="M247.388 76.2116L269.988 288.066" stroke="#C9CCD4" stroke-width="2.1298" stroke-miterlimit="10"/>
<path d="M257.354 75.1459L279.955 287" stroke="#C9CCD4" stroke-width="2.1298" stroke-miterlimit="10"/>
<path d="M267.322 74.0822L289.922 285.936" stroke="#C9CCD4" stroke-width="2.1298" stroke-miterlimit="10"/>
<path d="M277.29 73.0189L299.889 284.873" stroke="#C9CCD4" stroke-width="2.1298" stroke-miterlimit="10"/>
<path d="M287.255 71.953L309.855 283.807" stroke="#C9CCD4" stroke-width="2.1298" stroke-miterlimit="10"/>
<path d="M297.22 70.8895L319.82 282.744" stroke="#C9CCD4" stroke-width="2.1298" stroke-miterlimit="10"/>
<path d="M307.188 69.8263L329.788 281.68" stroke="#C9CCD4" stroke-width="2.1298" stroke-miterlimit="10"/>
<path d="M308.541 70.919L96.7974 93.5308" stroke="#C9CCD4" stroke-width="2.1298" stroke-miterlimit="10"/>
<path d="M309.608 80.8899L97.864 103.502" stroke="#C9CCD4" stroke-width="2.1298" stroke-miterlimit="10"/>
<path d="M310.67 90.8612L98.926 113.473" stroke="#C9CCD4" stroke-width="2.1298" stroke-miterlimit="10"/>
<path d="M311.733 100.835L99.9893 123.444" stroke="#C9CCD4" stroke-width="2.1298" stroke-miterlimit="10"/>
<path d="M312.797 110.806L101.054 133.418" stroke="#C9CCD4" stroke-width="2.1298" stroke-miterlimit="10"/>
<path d="M313.861 120.777L102.117 143.388" stroke="#C9CCD4" stroke-width="2.1298" stroke-miterlimit="10"/>
<path d="M314.923 130.748L103.179 153.36" stroke="#C9CCD4" stroke-width="2.1298" stroke-miterlimit="10"/>
<path d="M315.988 140.722L104.244 163.331" stroke="#C9CCD4" stroke-width="2.1298" stroke-miterlimit="10"/>
<path d="M317.051 150.693L105.308 173.305" stroke="#C9CCD4" stroke-width="2.1298" stroke-miterlimit="10"/>
<path d="M318.112 160.664L106.371 183.276" stroke="#C9CCD4" stroke-width="2.1298" stroke-miterlimit="10"/>
<path d="M319.179 170.635L107.435 193.247" stroke="#C9CCD4" stroke-width="2.1298" stroke-miterlimit="10"/>
<path d="M320.242 180.606L108.499 203.218" stroke="#C9CCD4" stroke-width="2.1298" stroke-miterlimit="10"/>
<path d="M321.309 190.58L109.565 213.192" stroke="#C9CCD4" stroke-width="2.1298" stroke-miterlimit="10"/>
<path d="M322.37 200.551L110.626 223.163" stroke="#C9CCD4" stroke-width="2.1298" stroke-miterlimit="10"/>
<path d="M323.433 210.522L111.689 233.134" stroke="#C9CCD4" stroke-width="2.1298" stroke-miterlimit="10"/>
<path d="M324.498 220.493L112.755 243.105" stroke="#C9CCD4" stroke-width="2.1298" stroke-miterlimit="10"/>
<path d="M325.562 230.467L113.818 253.079" stroke="#C9CCD4" stroke-width="2.1298" stroke-miterlimit="10"/>
<path d="M326.625 240.438L114.881 263.049" stroke="#C9CCD4" stroke-width="2.1298" stroke-miterlimit="10"/>
<path d="M327.689 250.409L115.945 273.021" stroke="#C9CCD4" stroke-width="2.1298" stroke-miterlimit="10"/>
<path d="M328.752 260.38L117.009 282.992" stroke="#C9CCD4" stroke-width="2.1298" stroke-miterlimit="10"/>
<path d="M329.815 270.354L118.071 292.966" stroke="#C9CCD4" stroke-width="2.1298" stroke-miterlimit="10"/>
<path d="M330.881 280.325L119.137 302.937" stroke="#C9CCD4" stroke-width="2.1298" stroke-miterlimit="10"/>
<path d="M140.519 104.15L140.175 104.186C139.603 104.247 139.092 103.834 139.03 103.263L137.121 85.3701C137.061 84.7986 137.473 84.2874 138.044 84.2247L138.389 84.1885C138.96 84.1282 139.471 84.5406 139.533 85.1121L141.442 103.005C141.503 103.576 141.088 104.09 140.519 104.15Z" fill="#6C7080"/>
<path d="M149.042 103.241L148.697 103.277C148.126 103.338 147.615 102.925 147.552 102.354L145.643 84.4611C145.583 83.8896 145.995 83.3784 146.566 83.3157L146.911 83.2795C147.482 83.2192 147.993 83.6316 148.056 84.2031L149.965 102.096C150.027 102.667 149.613 103.179 149.042 103.241Z" fill="#6C7080"/>
<path d="M157.566 102.33L157.222 102.366C156.651 102.426 156.14 102.014 156.077 101.442L154.168 83.5496C154.108 82.9781 154.52 82.4669 155.091 82.4042L155.436 82.368C156.007 82.3077 156.518 82.7201 156.581 83.2916L158.49 101.184C158.552 101.756 158.138 102.269 157.566 102.33Z" fill="#6C7080"/>
<path d="M166.09 101.421L165.746 101.457C165.174 101.517 164.663 101.105 164.601 100.534L162.692 82.6409C162.632 82.0694 163.044 81.5582 163.615 81.4955L163.96 81.4593C164.531 81.399 165.042 81.8114 165.104 82.3829L167.013 100.275C167.076 100.847 166.661 101.358 166.09 101.421Z" fill="#6C7080"/>
<path d="M174.616 100.509L174.271 100.545C173.7 100.606 173.189 100.193 173.127 99.6217L171.218 81.7291C171.158 81.1576 171.57 80.6464 172.141 80.5837L172.485 80.5475C173.057 80.4872 173.568 80.8996 173.63 81.4711L175.539 99.3637C175.599 99.9352 175.187 100.449 174.616 100.509Z" fill="#6C7080"/>
<path d="M183.14 99.6L182.795 99.6362C182.224 99.6965 181.713 99.2841 181.651 98.7126L179.742 80.82C179.681 80.2485 180.094 79.7373 180.665 79.6746L181.009 79.6384C181.581 79.5781 182.092 79.9905 182.154 80.562L184.063 98.4546C184.123 99.0261 183.711 99.5373 183.14 99.6Z" fill="#6C7080"/>
<path d="M183.142 99.5999L182.797 99.6361C182.226 99.6964 181.715 99.284 181.652 98.7125L179.744 80.8199C179.683 80.2484 180.096 79.7372 180.667 79.6745L181.011 79.6383C181.583 79.5781 182.094 79.9904 182.156 80.5619L184.065 98.4545C184.125 99.026 183.713 99.5372 183.142 99.5999Z" fill="#6C7080"/>
<path d="M191.667 98.6884L191.322 98.7246C190.751 98.7849 190.24 98.3725 190.177 97.801L188.269 79.9084C188.208 79.3369 188.62 78.8257 189.192 78.763L189.536 78.7268C190.107 78.6665 190.618 79.0789 190.681 79.6504L192.59 97.543C192.65 98.1145 192.238 98.6281 191.667 98.6884Z" fill="#6C7080"/>
<path d="M200.19 97.7793L199.846 97.8155C199.274 97.8758 198.764 97.4634 198.701 96.8919L196.792 78.9993C196.732 78.4278 197.144 77.9166 197.715 77.8539L198.06 77.8177C198.631 77.7574 199.142 78.1698 199.205 78.7413L201.113 96.6339C201.174 97.2054 200.762 97.7166 200.19 97.7793Z" fill="#6C7080"/>
<path d="M208.715 96.8681L208.371 96.9042C207.799 96.9645 207.288 96.5522 207.226 95.9807L205.317 78.0881C205.257 77.5166 205.669 77.0054 206.24 76.9427L206.585 76.9065C207.156 76.8462 207.667 77.2586 207.729 77.8301L209.638 95.7227C209.699 96.2942 209.284 96.8078 208.715 96.8681Z" fill="#6C7080"/>
<path d="M217.239 95.9587L216.895 95.9948C216.323 96.0551 215.812 95.6428 215.75 95.0713L213.841 77.1787C213.781 76.6072 214.193 76.0959 214.764 76.0332L215.109 75.9971C215.68 75.9368 216.191 76.3491 216.253 76.9206L218.162 94.8133C218.225 95.3848 217.81 95.896 217.239 95.9587Z" fill="#6C7080"/>
<path d="M225.763 95.047L225.418 95.0832C224.847 95.1435 224.336 94.7311 224.273 94.1596L222.364 76.267C222.304 75.6955 222.716 75.1843 223.287 75.1216L223.632 75.0854C224.203 75.0251 224.714 75.4375 224.777 76.009L226.686 93.9016C226.748 94.4731 226.334 94.9867 225.763 95.047Z" fill="#6C7080"/>
<path d="M225.764 95.0468L225.42 95.0829C224.849 95.1432 224.338 94.7309 224.275 94.1594L222.366 76.2668C222.306 75.6953 222.718 75.184 223.289 75.1214L223.634 75.0852C224.205 75.0249 224.716 75.4372 224.779 76.0087L226.688 93.9014C226.75 94.4729 226.336 94.9865 225.764 95.0468Z" fill="#6C7080"/>
<path d="M234.289 94.1376L233.945 94.1738C233.374 94.2341 232.863 93.8217 232.8 93.2502L230.891 75.3576C230.831 74.7861 231.243 74.2749 231.814 74.2122L232.159 74.176C232.73 74.1158 233.241 74.5281 233.304 75.0996L235.212 92.9922C235.275 93.5637 234.861 94.0749 234.289 94.1376Z" fill="#6C7080"/>
<path d="M242.813 93.2263L242.468 93.2624C241.897 93.3227 241.386 92.9104 241.323 92.3389L239.415 74.4463C239.354 73.8748 239.766 73.3636 240.338 73.3009L240.682 73.2647C241.253 73.2044 241.764 73.6167 241.827 74.1883L243.736 92.0809C243.796 92.6524 243.384 93.166 242.813 93.2263Z" fill="#6C7080"/>
<path d="M251.338 92.3173L250.993 92.3535C250.422 92.4138 249.911 92.0014 249.848 91.4299L247.939 73.5373C247.879 72.9658 248.291 72.4546 248.862 72.3919L249.207 72.3557C249.778 72.2954 250.289 72.7078 250.352 73.2793L252.261 91.1719C252.321 91.7434 251.909 92.2546 251.338 92.3173Z" fill="#6C7080"/>
<path d="M259.863 91.4052L259.518 91.4414C258.947 91.5017 258.436 91.0893 258.373 90.5178L256.464 72.6252C256.404 72.0537 256.816 71.5425 257.387 71.4798L257.732 71.4436C258.303 71.3833 258.814 71.7957 258.877 72.3672L260.786 90.2598C260.846 90.8313 260.434 91.3449 259.863 91.4052Z" fill="#6C7080"/>
<path d="M268.389 90.4968L268.044 90.533C267.473 90.5932 266.962 90.1809 266.899 89.6094L264.99 71.7167C264.93 71.1452 265.342 70.6339 265.913 70.5712L266.258 70.5351C266.829 70.4748 267.34 70.8871 267.403 71.4586L269.312 89.3514C269.372 89.9229 268.96 90.4341 268.389 90.4968Z" fill="#6C7080"/>
<path d="M386.897 73.4082L246.129 101.111L287.642 312.052L428.41 284.349L386.897 73.4082Z" fill="#284057"/>
<path d="M377.873 93.3635L262.037 116.16L268.002 146.474L383.839 123.677L377.873 93.3635Z" fill="#88AEBC"/>
<path d="M288.56 153.478L270.091 157.115L272.28 168.243L290.749 164.606L288.56 153.478Z" fill="#FBA08C"/>
<path d="M315.435 148.185L296.966 151.822L299.155 162.95L317.624 159.313L315.435 148.185Z" fill="#88AEBC"/>
<path d="M305.414 176.025L274.988 182.016L280.976 212.458L311.402 206.467L305.414 176.025Z" fill="#FBA08C"/>
<path d="M347.721 167.692L317.295 173.683L323.283 204.125L353.709 198.134L347.721 167.692Z" fill="#FBA08C"/>
<path d="M390.024 159.362L359.598 165.353L365.585 195.795L396.012 189.804L390.024 159.362Z" fill="#FBA08C"/>
<path d="M313.248 215.846L282.822 221.837L288.81 252.279L319.236 246.288L313.248 215.846Z" fill="#FBA08C"/>
<path d="M355.552 207.511L325.125 213.502L331.113 243.944L361.539 237.953L355.552 207.511Z" fill="#FBA08C"/>
<path d="M397.857 199.183L367.431 205.174L373.418 235.616L403.845 229.625L397.857 199.183Z" fill="#FBA08C"/>
<path d="M321.083 255.665L290.657 261.656L296.645 292.098L327.071 286.107L321.083 255.665Z" fill="#FBA08C"/>
<path d="M363.389 247.334L332.962 253.325L338.95 283.767L369.376 277.776L363.389 247.334Z" fill="#FBA08C"/>
<path d="M405.688 239.008L375.262 244.999L381.25 275.44L411.676 269.449L405.688 239.008Z" fill="#FBA08C"/>
<path d="M273.132 322.26C296.296 322.26 315.83 337.804 321.887 359.034H224.377C230.434 337.804 249.968 322.26 273.132 322.26Z" fill="#DCDCE0"/>
<path d="M330.192 333.656C346.176 333.656 359.659 344.382 363.838 359.034H296.546C300.726 344.382 314.206 333.656 330.192 333.656Z" fill="#DCDCE0"/>
<path d="M257.671 359.034C251.122 336.362 225.172 319.429 194.151 319.429C163.132 319.429 137.18 336.362 130.632 359.034H257.671Z" fill="#DCDCE0"/>
<path d="M149.33 334.553C169.992 334.553 187.415 348.418 192.816 367.355H105.843C111.244 348.416 128.67 334.553 149.33 334.553Z" fill="#C0D4DB"/>
<path d="M200.222 344.717C214.48 344.717 226.505 354.286 230.233 367.353H170.213C173.939 354.286 185.964 344.717 200.222 344.717Z" fill="#C0D4DB"/>
<path d="M135.536 367.353C129.694 347.131 106.549 332.026 78.8805 332.026C51.212 332.026 28.0649 347.131 22.2251 367.353H135.536Z" fill="#C0D4DB"/>
<path d="M68.0306 359.086C77.4808 359.086 85.4512 365.428 87.9216 374.09H48.1396C50.6101 365.428 58.5804 359.086 68.0306 359.086Z" fill="#88AEBC"/>
<path d="M91.3097 363.735C97.8316 363.735 103.332 368.112 105.038 374.09H77.5815C79.2879 368.112 84.7879 363.735 91.3097 363.735Z" fill="#88AEBC"/>
<path d="M623.084 221.157C630.726 221.157 637.171 226.286 639.169 233.291H606.996C608.997 226.286 615.441 221.157 623.084 221.157Z" fill="#B3B6BE"/>
<path d="M641.911 224.916C647.185 224.916 651.634 228.456 653.012 233.288H630.81C632.189 228.456 636.638 224.916 641.911 224.916Z" fill="#B3B6BE"/>
<path d="M617.982 233.291C615.822 225.811 607.259 220.223 597.023 220.223C586.787 220.223 578.226 225.811 576.064 233.291H617.982Z" fill="#B3B6BE"/>
<path d="M177.279 319.241C178.742 317.743 180.036 317.174 181.699 317.707C183.526 318.293 184.507 320.275 183.859 322.084L165.824 372.487C165.539 373.283 164.676 373.707 163.871 373.451C163.069 373.193 162.613 372.347 162.842 371.534L163.471 369.309C171.77 333.514 172.536 324.852 177.279 319.241Z" fill="#F5D1BC"/>
<path d="M164.659 272.729C165.083 266.337 168.246 264.805 170.547 264.555C170.697 264.499 170.848 264.451 171.01 264.417C172.885 264.014 174.722 265.244 175.061 267.135L184.526 319.826C184.676 320.658 184.14 321.456 183.314 321.635C183.039 321.695 182.764 321.676 182.511 321.596C180.544 321.358 178.838 320.058 178.108 318.17C174.309 308.336 164.107 281.041 164.659 272.729Z" fill="white"/>
<path d="M159.264 319.241C160.727 317.743 162.021 317.174 163.684 317.707C165.511 318.293 166.492 320.275 165.843 322.084L147.808 372.487C147.524 373.283 146.661 373.707 145.856 373.451C145.054 373.193 144.598 372.347 144.827 371.534L145.456 369.309C153.754 333.514 154.521 324.852 159.264 319.241Z" fill="#F5D1BC"/>
<path d="M154.041 271.393C155.492 265.153 158.859 264.154 161.173 264.277C161.329 264.246 161.488 264.224 161.65 264.217C163.566 264.121 165.181 265.635 165.21 267.554L166.044 321.085C166.056 321.929 165.398 322.633 164.557 322.674C164.275 322.689 164.007 322.626 163.771 322.506C161.869 321.951 160.394 320.393 159.98 318.411C157.818 308.095 152.154 279.508 154.041 271.393Z" fill="white"/>
<path d="M145.571 372.265C146.719 372.265 147.731 372.094 148.333 371.833C152.346 372.395 160.517 374.278 160.261 376.285C160.167 377.025 144.226 376.54 143.12 376.412C142.339 376.323 142.66 374.013 142.915 372.655C142.988 372.272 143.359 372.029 143.742 372.103C144.267 372.205 144.896 372.265 145.571 372.265Z" fill="#3B3E54"/>
<path d="M164.246 372.265C165.393 372.265 166.405 372.094 167.008 371.833C171.021 372.395 179.191 374.278 178.935 376.285C178.841 377.025 162.901 376.54 161.794 376.412C161.014 376.323 161.334 374.013 161.59 372.655C161.662 372.272 162.033 372.029 162.416 372.103C162.942 372.205 163.568 372.265 164.246 372.265Z" fill="#3B3E54"/>
<path d="M174.594 262.387C174.594 262.387 185.022 313.634 185.174 317.512C185.326 321.389 184.379 323.738 183.205 326.607C182.031 329.477 169.426 364.867 169.426 364.867L164.635 364.245C164.635 364.245 169.761 326.569 176.823 318.078C176.823 318.078 158.978 266.706 158.978 262.387H174.594Z" fill="#3E4358"/>
<path d="M147.004 362.576L151.449 363.688C151.449 363.688 166.809 323.663 166.705 321.671C166.601 319.679 166.705 262.387 166.705 262.387L153.237 263.072C153.237 263.072 150.803 287.398 158.983 318.208C158.983 318.208 153.273 320.48 147.004 362.576Z" fill="#3E4358"/>
<path d="M150.635 257.685C150.38 256.472 150.146 255.278 149.941 254.106C149.804 253.332 149.676 252.568 149.561 251.815C149.291 250.103 149.076 248.437 148.905 246.795C148.825 246.016 148.758 245.239 148.695 244.473C148.543 242.577 148.452 240.728 148.416 238.914C148.401 238.131 148.389 237.361 148.396 236.592C148.416 231.572 148.859 226.836 149.582 222.28C150.004 219.618 150.566 217.284 151.187 215.249C153.05 209.177 160.664 207.212 165.258 211.591L166.248 212.534C168.786 214.945 169.76 218.543 168.873 221.936C167.904 225.666 167.663 231.106 169.112 239.522C169.201 240.038 169.295 240.566 169.396 241.106C169.543 241.873 169.705 242.659 169.871 243.477C170.114 244.617 170.387 245.816 170.683 247.055C170.864 247.803 171.054 248.567 171.254 249.348C171.609 250.735 171.994 252.175 172.423 253.679C172.541 254.099 172.664 254.523 172.79 254.953C172.886 255.285 172.982 255.621 173.084 255.961C173.315 256.766 173.568 257.598 173.826 258.439C174.053 259.175 174.286 259.925 174.53 260.689C174.858 261.717 175.2 262.773 175.554 263.853C173.378 264.745 170.818 264.977 168.439 264.849C164.438 264.632 160.38 263.696 156.473 264.591C155.164 264.89 153.916 265.387 152.658 265.864C152.089 263.848 151.583 261.876 151.137 259.949C150.954 259.187 150.792 258.43 150.635 257.685Z" fill="#BBB2AD"/>
<path d="M163.751 212.246C159.77 210.211 158.473 213.814 158.396 213.898C157.483 214.877 158.128 217.416 159.408 218.431L189.125 239.625C189.569 240.014 191.892 239.442 192.292 239.01C192.427 238.866 192.514 238.695 192.555 238.516C193.117 237.253 191.148 235.222 190.171 234.2C185.38 229.182 168.926 214.894 163.751 212.246Z" fill="#BBB2AD"/>
<path d="M158.114 218.798C160.358 216.295 157.774 213.105 157.724 212.987C157.114 211.607 155.034 210.785 154.031 211.388L132.615 226.741C132.239 226.932 132.694 227.935 132.962 228.54C133.051 228.743 133.169 228.919 133.302 229.056C134.191 230.272 135.644 230.891 136.654 230.715C141.918 229.811 155.195 222.054 158.114 218.798Z" fill="#BBB2AD"/>
<path d="M169.332 207.788C169.332 207.788 170.197 205.405 169.091 203.314C167.985 201.224 167.267 203.642 167.267 203.642L169.332 207.788Z" fill="#284057"/>
<path d="M154.542 202.782C154.662 203.006 156.386 207.279 157.118 207.339C158.121 207.424 157.752 204.098 157.752 204.098L154.542 202.782Z" fill="#284057"/>
<path d="M167.748 197.04C167.748 197.04 168.738 194.865 167.883 193.341C167.071 191.892 165.644 190.363 160.023 191.569C159.221 191.74 158.657 192.463 158.679 193.283L158.741 195.608L167.748 197.04Z" fill="#284057"/>
<path d="M157.166 201.458C157.74 204.805 158.46 207.537 160.615 208.914C161.372 209.399 162.312 209.804 163.413 209.932C164.103 210.011 164.852 209.982 165.66 209.797C167.766 209.309 168.783 208.174 169.178 206.57C169.631 204.73 169.267 202.275 168.788 199.469C167.889 194.214 164.83 191.984 161.62 192.533C158.415 193.083 156.27 196.204 157.166 201.458Z" fill="#F5D1BC"/>
<path d="M156.802 201.784L162.386 201.405C162.439 202.169 162.805 209.449 162.442 212.179C162.213 213.016 160.812 213.361 159.316 212.951C157.971 212.582 157.011 211.728 156.997 210.949L156.99 210.947C157.209 209.312 156.983 204.455 156.802 201.784Z" fill="#F5D1BC"/>
<path d="M154.697 203.141C154.697 203.141 156.114 203.51 157.24 202.251C158.72 200.592 160.033 197.047 160.349 195.439C160.906 192.613 160.069 191.889 160.069 191.889C160.069 191.889 154.716 192.478 153.625 194.301C151.988 197.031 154.697 203.141 154.697 203.141Z" fill="#284057"/>
<path d="M158.616 198.595L159.922 206.264C160.059 207.074 160.667 207.72 161.464 207.911L162.38 208.13C162.944 208.265 163.491 207.848 163.513 207.269L163.571 205.685C163.583 205.33 163.829 205.027 164.173 204.94L167.596 204.081C167.962 203.99 168.34 204.168 168.507 204.506L169.194 205.916C169.871 207.308 169.157 208.979 167.685 209.451L165.639 210.107C165.202 210.247 164.737 210.279 164.287 210.199C164.253 210.194 164.219 210.189 164.185 210.18L164.125 210.165H164.123L163.414 209.996L161.1 209.444C159.688 209.109 158.616 207.961 158.37 206.529L157.063 198.861L158.616 198.595Z" fill="#284057"/>
<path d="M159.813 194.308L163.201 193.758C164.337 193.575 165.503 193.806 166.482 194.409L167.812 195.231L165.713 192.318L162.821 191.74L159.403 192.56L159.813 194.308Z" fill="#284057"/>
<path d="M154.934 202.292C155.12 203.414 156.472 204.663 157.284 204.53C158.096 204.397 158.149 203.452 157.961 202.331C157.773 201.21 156.942 200.269 156.129 200.404C155.32 200.537 154.749 201.171 154.934 202.292Z" fill="#F5D1BC"/>
<path d="M213.933 222.15C213.46 220.957 213.574 219.613 214.236 218.514C215.938 215.695 219.327 210.489 221.325 210.153C224.075 209.69 219.994 219.483 214.2 222.83L213.933 222.15Z" fill="#F5D1BC"/>
<path d="M214.176 218.863C207.206 221.938 193.092 230.872 189.708 234.318C186.9 237.176 188.676 238.84 188.727 238.931C189.325 240.004 191.593 240.462 192.807 239.647L216.14 221.936L214.176 218.863Z" fill="#BBB2AD"/>
<path d="M132.1 259.686C132.623 260.858 132.568 262.206 131.951 263.332C130.372 266.221 127.208 271.567 125.227 271.989C122.501 272.568 126.157 262.611 131.804 259.02L132.1 259.686Z" fill="#F5D1BC"/>
<path d="M133.25 261.15C135.624 253.402 138.244 235.852 137.82 230.749C137.468 226.515 134.887 226.806 134.776 226.785C133.491 226.532 131.542 228.048 131.354 229.589L129.399 260.624L133.25 261.15Z" fill="#BBB2AD"/>
<path d="M12.2666 291.239C12.2666 291.239 8.23202 287.33 8.1091 280.487C7.98619 273.643 2.17049 272.97 0.543632 275.893C-1.08563 278.813 0.432769 285.874 12.2666 291.239Z" fill="#C0D4DB"/>
<path d="M18.3106 292.901C18.3106 292.901 17.696 287.313 21.9644 281.965C26.2328 276.616 22.1813 272.387 19.065 273.597C15.9462 274.808 12.6154 281.215 18.3106 292.901Z" fill="#C0D4DB"/>
<path d="M17.9937 293.646C17.9937 293.646 12.7588 295.681 9.98958 301.941C7.22031 308.201 1.60224 306.561 1.23349 303.236C0.867144 299.913 5.00539 293.995 17.9937 293.646Z" fill="#C0D4DB"/>
<path d="M28.4077 299.312C28.4077 299.312 23.1729 301.347 20.4036 307.607C17.6368 313.868 12.0163 312.228 11.6475 308.902C11.2836 305.58 15.4194 299.662 28.4077 299.312Z" fill="#C0D4DB"/>
<path d="M36.4266 306.807C36.4266 306.807 31.1918 308.842 28.4225 315.102C25.6557 321.362 20.0352 319.722 19.6688 316.397C19.3001 313.074 23.4383 307.154 36.4266 306.807Z" fill="#C0D4DB"/>
<path d="M45.9505 316.511C45.9505 316.511 40.7156 318.546 37.9464 324.806C35.1795 331.066 29.559 329.426 29.1903 326.101C28.8239 322.778 32.9622 316.858 45.9505 316.511Z" fill="#C0D4DB"/>
<path d="M28.3045 299.281C28.3045 299.281 27.6899 293.694 31.9583 288.345C36.2266 282.997 32.1752 278.767 29.0589 279.98C25.9426 281.193 22.6094 287.598 28.3045 299.281Z" fill="#C0D4DB"/>
<path d="M37.6229 307.294C37.6229 307.294 37.0083 301.707 41.2766 296.358C45.545 291.01 41.4935 286.78 38.3772 287.991C35.2609 289.204 31.9277 295.611 37.6229 307.294Z" fill="#C0D4DB"/>
<path d="M46.2174 316.139C46.2174 316.139 45.6028 310.552 49.8712 305.203C54.1396 299.855 50.0881 295.625 46.9718 296.838C43.8554 298.046 40.5222 304.453 46.2174 316.139Z" fill="#C0D4DB"/>
<path d="M74.0484 361.129C73.7712 361.196 73.4796 361.052 73.3712 360.779C73.3181 360.646 67.9531 347.292 57.4931 331.968C47.8573 317.851 31.8009 299.122 10.03 290.069C9.73359 289.946 9.5938 289.606 9.71672 289.31C9.83964 289.013 10.1795 288.873 10.4759 288.996C32.5167 298.162 48.7394 317.08 58.4668 331.333C68.9943 346.762 74.3979 360.215 74.4509 360.35C74.569 360.649 74.4244 360.986 74.1255 361.105C74.099 361.114 74.0749 361.122 74.0484 361.129Z" fill="#C0D4DB"/>
<path d="M61.0457 247.964C61.0457 247.964 57.3582 240.021 61.0023 229.997C64.6465 219.973 56.5628 215.745 52.562 219.085C48.5635 222.425 46.8258 233.544 61.0457 247.964Z" fill="#C0D4DB"/>
<path d="M68.9112 253.759C68.9112 253.759 71.1358 245.288 80.3329 239.893C89.53 234.499 85.9992 226.083 80.7884 226.102C75.5777 226.122 67.1518 233.578 68.9112 253.759Z" fill="#C0D4DB"/>
<path d="M68.0302 254.668C68.0302 254.668 59.2765 254.702 51.7545 262.259C44.2324 269.816 36.973 264.289 38.2962 259.25C39.6194 254.207 48.9442 247.914 68.0302 254.668Z" fill="#C0D4DB"/>
<path d="M80.0154 268.734C80.0154 268.734 71.2617 268.768 63.7396 276.325C56.2175 283.882 48.9581 278.355 50.2813 273.316C51.6045 268.276 60.9294 261.98 80.0154 268.734Z" fill="#C0D4DB"/>
<path d="M87.4914 284.118C87.4914 284.118 78.7377 284.152 71.2157 291.709C63.6936 299.267 56.4342 293.74 57.7574 288.7C59.0806 283.658 68.4054 277.361 87.4914 284.118Z" fill="#C0D4DB"/>
<path d="M95.9244 303.557C95.9244 303.557 87.1707 303.59 79.6486 311.148C72.1265 318.705 64.8671 313.178 66.1902 308.138C67.5134 303.096 76.8383 296.8 95.9244 303.557Z" fill="#C0D4DB"/>
<path d="M79.888 268.63C79.888 268.63 82.1126 260.159 91.3097 254.764C100.507 249.37 96.976 240.954 91.7652 240.974C86.5545 240.995 78.1286 248.451 79.888 268.63Z" fill="#C0D4DB"/>
<path d="M88.963 285.496C88.963 285.496 91.1876 277.024 100.385 271.63C109.582 266.236 106.051 257.82 100.84 257.839C95.6295 257.858 87.2036 265.317 88.963 285.496Z" fill="#C0D4DB"/>
<path d="M96.5223 303.164C96.5223 303.164 98.7469 294.692 107.944 289.298C117.141 283.904 113.61 275.488 108.4 275.507C103.189 275.529 94.7629 282.985 96.5223 303.164Z" fill="#C0D4DB"/>
<path d="M110.057 353.779L108.23 353.808C107.232 347.343 105.892 340.128 104.087 332.491C102.019 323.757 99.187 313.851 95.3163 303.586C95.2801 303.492 95.2464 303.4 95.2103 303.306C92.8218 296.993 90.0405 290.545 86.8037 284.155C86.7482 284.044 86.6904 283.928 86.6325 283.817C84.0705 278.782 81.2266 273.786 78.0717 268.919C77.8427 268.565 77.6113 268.213 77.3775 267.861C74.3841 263.325 71.116 258.91 67.549 254.687C67.4742 254.598 67.3971 254.509 67.3224 254.42C65.2449 251.972 63.0637 249.59 60.7764 247.289C60.0124 246.52 59.2363 245.76 58.4482 245.01C58.0843 244.665 58.0722 244.094 58.4145 243.732C58.7615 243.368 59.3303 243.356 59.6943 243.698C59.7425 243.747 59.7955 243.793 59.8437 243.841C63.0516 246.906 66.0643 250.127 68.8866 253.467C68.9155 253.498 68.942 253.53 68.9685 253.564C72.9622 258.295 76.5846 263.262 79.8672 268.365C79.8889 268.399 79.913 268.435 79.9347 268.471C83.2439 273.624 86.2108 278.912 88.8668 284.232C88.968 284.434 89.0692 284.642 89.1704 284.844C91.8939 290.35 94.2896 295.886 96.3912 301.331C96.5262 301.676 96.6588 302.016 96.7889 302.358C100.807 312.928 103.737 323.135 105.861 332.115C107.692 339.885 109.052 347.218 110.057 353.779Z" fill="#C0D4DB"/>
<path d="M119.856 148.087C127.417 148.087 133.794 153.16 135.771 160.091H103.942C105.918 153.16 112.296 148.087 119.856 148.087Z" fill="#8B8F9B"/>
<path d="M138.48 151.807C143.698 151.807 148.099 155.308 149.463 160.09H127.499C128.863 155.308 133.262 151.807 138.48 151.807Z" fill="#8B8F9B"/>
<path d="M114.808 160.09C112.67 152.689 104.199 147.162 94.0737 147.162C83.9486 147.162 75.4769 152.689 73.3391 160.09H114.808Z" fill="#8B8F9B"/>
<path d="M210.006 125.26C210.656 130.917 207.779 138.105 207.779 138.105C207.779 138.105 203.347 131.758 202.696 126.101C202.045 120.444 203.407 117.849 205.424 117.618C207.444 117.384 209.355 119.602 210.006 125.26Z" stroke="#616677" stroke-width="2.2984" stroke-miterlimit="10" stroke-linecap="round" stroke-linejoin="round"/>
<path d="M218.699 124.259C219.35 129.916 216.472 137.104 216.472 137.104C216.472 137.104 212.04 130.758 211.389 125.1C210.739 119.443 212.098 116.849 214.118 116.617C216.137 116.386 218.049 118.602 218.699 124.259Z" stroke="#616677" stroke-width="2.2984" stroke-miterlimit="10" stroke-linecap="round" stroke-linejoin="round"/>
<path d="M216.472 137.104C216.746 139.497 215.03 141.66 212.64 141.934C210.249 142.209 208.087 140.492 207.812 138.1" stroke="#616677" stroke-width="2.2984" stroke-miterlimit="10" stroke-linecap="round" stroke-linejoin="round"/>
<path d="M207.779 138.105C208.054 140.497 206.338 142.66 203.947 142.935" stroke="#616677" stroke-width="2.2984" stroke-miterlimit="10" stroke-linecap="round" stroke-linejoin="round"/>
<path d="M227.351 123.265C228.001 128.922 225.124 136.111 225.124 136.111C225.124 136.111 220.691 129.764 220.041 124.107C219.39 118.45 220.749 115.855 222.769 115.623C224.789 115.39 226.7 117.608 227.351 123.265Z" stroke="#616677" stroke-width="2.2984" stroke-miterlimit="10" stroke-linecap="round" stroke-linejoin="round"/>
<path d="M225.125 136.108C225.399 138.501 223.683 140.664 221.292 140.938C218.902 141.213 216.74 139.496 216.465 137.104" stroke="#616677" stroke-width="2.2984" stroke-miterlimit="10" stroke-linecap="round" stroke-linejoin="round"/>
<path d="M236.005 122.269C236.656 127.927 233.778 135.115 233.778 135.115C233.778 135.115 229.346 128.768 228.695 123.111C228.044 117.454 229.406 114.859 231.423 114.628C233.443 114.394 235.356 116.612 236.005 122.269Z" stroke="#616677" stroke-width="2.2984" stroke-miterlimit="10" stroke-linecap="round" stroke-linejoin="round"/>
<path d="M233.776 135.115C234.051 137.507 232.335 139.67 229.944 139.945C227.553 140.22 225.391 138.503 225.116 136.111" stroke="#616677" stroke-width="2.2984" stroke-miterlimit="10" stroke-linecap="round" stroke-linejoin="round"/>
<path d="M238.604 138.949C236.213 139.224 234.052 137.507 233.777 135.115" stroke="#616677" stroke-width="2.2984" stroke-miterlimit="10" stroke-linecap="round" stroke-linejoin="round"/>
<path d="M226.336 229.575L209.753 238.316L268.696 350.251L285.278 341.51L226.336 229.575Z" fill="#284057"/>
<path d="M173.853 131.778L175.051 134.054L184.542 129.05C187.355 127.567 190.847 128.65 192.329 131.464L228.98 201.062C230.453 203.859 229.392 207.329 226.618 208.827C226.601 208.836 226.585 208.846 226.568 208.853L223.622 210.406L224.82 212.683L227.766 211.13C229.737 210.09 231.183 208.347 231.841 206.22C232.499 204.093 232.292 201.834 231.253 199.864L194.602 130.266C192.459 126.198 187.408 124.63 183.342 126.774L173.853 131.778Z" fill="#284057"/>
<path d="M176.853 128.742L154.571 140.488L153.74 138.911C152.142 135.877 153.306 132.123 156.338 130.526L167.642 124.568C170.674 122.969 174.426 124.134 176.022 127.167L176.853 128.742Z" fill="#FB9FA4"/>
<path d="M293.169 376.572C292.702 376.818 292.126 376.658 291.851 376.207L288.036 369.945C287.737 369.453 287.913 368.809 288.424 368.539L289.234 368.112C289.745 367.842 290.374 368.062 290.61 368.587L293.615 375.277C293.832 375.759 293.637 376.326 293.169 376.572Z" fill="#FB9FA4"/>
<path d="M291.998 370.526L285.297 341.502L268.715 350.244L288.852 372.185L291.998 370.526Z" fill="#284057"/>
<path d="M235.621 247.171L219.039 255.912L153.671 138.78L176.023 126.998L235.621 247.171Z" fill="#284057"/>
<path d="M288.083 332.611L262.351 346.175L263.055 347.512L288.787 333.948L288.083 332.611Z" fill="#FDC7CA"/>
<path d="M240.126 238.109L214.394 251.673L215.099 253.013L240.831 239.449L240.126 238.109Z" fill="#FDC7CA"/>
<path d="M177.355 125.451L151.62 139.01L152.325 140.347L178.06 126.789L177.355 125.451Z" fill="#9A9DA8"/>
<path d="M105.397 69.0569C109.178 69.0569 112.369 71.5961 113.357 75.0612H97.436C98.4242 71.5937 101.613 69.0569 105.397 69.0569Z" fill="white"/>
<path d="M66.5903 66.214C72.1626 66.214 76.8624 69.9541 78.3182 75.0591H54.8625C56.3183 69.9541 61.0181 66.214 66.5903 66.214Z" fill="white"/>
<path d="M102.987 75.0615C101.189 68.8353 94.0625 64.1861 85.5451 64.1861C77.0276 64.1861 69.9008 68.8353 68.1028 75.0615H102.987Z" fill="white"/>
<path d="M334.306 121.148C336.516 121.148 338.309 119.354 338.309 117.143C338.309 119.354 340.102 121.148 342.312 121.148C340.102 121.148 338.309 122.942 338.309 125.153C338.309 122.942 336.518 121.148 334.306 121.148Z" fill="white"/>
<path d="M349.081 110.475C353.065 110.475 356.294 107.244 356.294 103.258C356.294 107.244 359.524 110.475 363.508 110.475C359.524 110.475 356.294 113.707 356.294 117.693C356.294 113.707 353.065 110.475 349.081 110.475Z" fill="white"/>
<path d="M381.726 354.932C385.356 354.932 388.417 357.367 389.367 360.695H374.084C375.034 357.367 378.094 354.932 381.726 354.932Z" fill="#FB9FA4"/>
<path d="M344.481 352.204C349.83 352.204 354.339 355.793 355.737 360.695H333.226C334.624 355.793 339.133 352.204 344.481 352.204Z" fill="#FB9FA4"/>
<path d="M379.412 360.695C377.686 354.72 370.846 350.256 362.671 350.256C354.495 350.256 347.655 354.72 345.93 360.695H379.412Z" fill="#FB9FA4"/>
<path d="M337.759 333.892C338.498 333.446 339.46 333.697 339.906 334.452C340.106 334.789 340.166 335.173 340.108 335.532C341.68 336.521 343.174 337.61 344.574 338.746C344.03 337.348 343.321 335.228 343.037 333.041C342.617 332.954 342.234 332.696 341.996 332.293C341.55 331.536 341.788 330.562 342.528 330.116C343.268 329.67 344.23 329.921 344.676 330.675C345.122 331.43 344.883 332.407 344.143 332.853C344.059 332.903 343.97 332.944 343.88 332.978C344.317 336.248 345.775 339.455 346.006 339.947C349.024 342.578 351.542 345.341 353.386 347.574C356.702 351.587 358.635 354.801 358.655 354.833L357.934 355.274C357.915 355.243 356.015 352.086 352.74 348.124C351.754 346.933 350.576 345.587 349.231 344.194C348.623 344.179 346.344 344.206 343.497 345.245C343.615 345.879 343.345 346.547 342.769 346.894C342.029 347.341 341.068 347.09 340.622 346.335C340.176 345.58 340.415 344.604 341.154 344.157C341.805 343.764 342.629 343.911 343.121 344.469C345.375 343.632 347.283 343.403 348.399 343.347C345.953 340.904 343.025 338.377 339.747 336.308C339.641 336.431 339.516 336.54 339.371 336.627C338.631 337.073 337.669 336.822 337.223 336.067C336.778 335.312 337.019 334.341 337.759 333.892Z" fill="#FB9FA4"/>
<path d="M358.651 341.167C358.087 340.936 355.937 340.142 352.905 340.094C352.794 340.728 352.309 341.254 351.649 341.372C350.801 341.524 349.984 340.945 349.827 340.082C349.67 339.219 350.232 338.392 351.08 338.24C351.827 338.107 352.55 338.539 352.818 339.236C355.223 339.262 357.096 339.732 358.161 340.08C356.713 336.923 354.835 333.518 352.476 330.412C352.334 330.489 352.179 330.545 352.013 330.576C351.165 330.728 350.348 330.149 350.191 329.286C350.034 328.42 350.596 327.596 351.444 327.444C352.295 327.292 353.11 327.871 353.266 328.734C353.336 329.122 353.261 329.501 353.083 329.814C354.218 331.3 355.243 332.85 356.163 334.413C356.134 332.913 356.204 330.682 356.696 328.541C356.332 328.31 356.06 327.931 355.978 327.47C355.821 326.605 356.383 325.78 357.233 325.628C358.082 325.476 358.899 326.055 359.055 326.918C359.212 327.784 358.651 328.609 357.802 328.76C357.703 328.777 357.607 328.785 357.511 328.785C356.788 331.992 357.045 335.505 357.091 336.048C359.014 339.583 360.42 343.063 361.379 345.807C363.102 350.738 363.806 354.428 363.811 354.466L362.982 354.62C362.974 354.584 362.285 350.958 360.583 346.089C360.07 344.625 359.429 342.949 358.651 341.167Z" fill="#FB9FA4"/>
<path d="M243.97 385.05C255.502 385.05 264.85 375.697 264.85 364.16C264.85 352.623 255.502 343.27 243.97 343.27C232.439 343.27 223.091 352.623 223.091 364.16C223.091 375.697 232.439 385.05 243.97 385.05Z" stroke="#284057" stroke-width="8.8883" stroke-miterlimit="10" stroke-linecap="round" stroke-linejoin="round"/>
<path d="M212.007 361.536C213.672 360.502 215.569 359.776 217.627 359.453C219.686 359.13 221.713 359.241 223.617 359.716" stroke="#284057" stroke-width="8.8883" stroke-miterlimit="10" stroke-linecap="round" stroke-linejoin="round"/>
<path d="M193.639 392.545C205.17 392.545 214.518 383.192 214.518 371.655C214.518 360.118 205.17 350.765 193.639 350.765C182.108 350.765 172.76 360.118 172.76 371.655C172.76 383.192 182.108 392.545 193.639 392.545Z" stroke="#284057" stroke-width="8.8883" stroke-miterlimit="10" stroke-linecap="round" stroke-linejoin="round"/>
<path d="M265.14 360.165L289.566 360.348C294.715 360.386 300.675 360.714 305.633 362.106C313.69 364.363 318.633 367.36 327.449 376.692" stroke="#284057" stroke-width="8.8883" stroke-miterlimit="10" stroke-linecap="round" stroke-linejoin="round"/>
<path d="M174.737 377.548L199.164 377.731C204.312 377.77 210.272 378.1 215.23 379.489C223.287 381.746 228.23 384.744 237.046 394.076" stroke="#284057" stroke-width="8.8883" stroke-miterlimit="10" stroke-linecap="round" stroke-linejoin="round"/>
</svg>
