<svg width="167" height="39" viewBox="0 0 167 39" fill="none" xmlns="http://www.w3.org/2000/svg">
<path d="M68.5574 0.299561C60.223 0.299561 54.7115 2.18154 51.3508 6.21435C47.8557 10.3816 47.4524 16.0275 47.4524 21.0013V34.0407C47.4524 36.1916 49.1999 37.8047 51.2163 37.8047C53.3672 37.8047 54.9803 36.0572 54.9803 34.0407V21.0013C54.9803 11.9947 56.3246 7.82747 68.5574 7.82747C80.2526 7.82747 82.0001 11.457 82.0001 21.1358H62.2394C60.0885 21.1358 58.4754 22.8833 58.4754 24.8997C58.4754 27.0505 60.223 28.6637 62.2394 28.6637H82.0001C82.0001 31.0834 82.0001 32.4276 82.0001 33.7719C82.0001 35.9227 83.7477 37.6703 85.7641 37.6703C87.9149 37.6703 89.528 35.9227 89.528 33.9063C89.528 31.0834 89.528 24.8997 89.528 20.8669C89.6625 10.2472 87.1084 0.299561 68.5574 0.299561Z" fill="#24272A"/>
<path d="M32.5313 27.5885C29.8428 29.336 25.2723 30.1426 19.0886 30.1426C15.4591 30.1426 11.2919 30.1426 7.66234 30.1426V7.96215H19.0886C25.2723 7.96215 29.8428 8.90314 32.5313 10.5163C34.2789 11.5917 36.1609 13.6081 36.1609 18.9852C36.1609 24.6311 34.1445 26.5131 32.5313 27.5885ZM19.0886 0.299805H4.03281C1.74755 0.299805 0 2.04736 0 4.33262V33.9066C0 36.0574 1.74755 37.805 3.89838 37.9394C7.79677 37.9394 13.9804 37.9394 18.9542 37.9394C32.8002 37.9394 43.6888 34.041 43.6888 19.254C43.8232 4.19819 32.8002 0.299805 19.0886 0.299805Z" fill="#24272A"/>
<path d="M129.856 29.336L118.699 19.1195L129.856 8.90308L141.148 19.1195L129.856 29.336Z" fill="white"/>
<path d="M129.856 28.9326L119.102 19.1194L129.856 9.30625L140.61 19.1194L129.856 28.9326ZM152.037 19.1194L165.479 6.88656C167.092 5.40787 167.092 2.98818 165.748 1.50948C164.269 -0.103644 161.85 -0.103644 160.371 1.24063L146.391 13.8768L132.948 1.64391C131.2 0.0307827 128.512 0.0307827 126.764 1.64391L113.456 13.8768L99.7444 1.24063C98.1313 -0.238071 95.7116 -0.103644 94.3673 1.50948C92.8886 3.12261 93.0231 5.54229 94.6362 6.88656L107.944 19.1194L94.6362 31.3523C93.0231 32.831 93.0231 35.2507 94.3673 36.7294C95.1739 37.5359 96.1149 37.9392 97.1903 37.9392C98.1313 37.9392 99.0723 37.6704 99.7444 36.9982L113.59 24.3621L126.899 36.595C127.84 37.4015 128.915 37.8048 129.991 37.8048C131.066 37.8048 132.141 37.4015 133.082 36.595L146.525 24.3621L160.505 36.9982C162.119 38.4769 164.538 38.3425 165.883 36.7294C167.361 35.1163 167.227 32.6966 165.614 31.3523L152.037 19.1194Z" fill="#24272A"/>
</svg>
