<svg width="60" height="66" viewBox="0 0 60 66" fill="none" xmlns="http://www.w3.org/2000/svg">
<path d="M15.9282 16.5011C11.3782 16.5011 7.67763 12.8006 7.67763 8.25057C7.67763 3.70053 11.3782 0 15.9282 0C20.4782 0 24.1788 3.70053 24.1788 8.25057C24.182 12.8006 20.4782 16.5011 15.9282 16.5011ZM15.9282 2.54211C12.7779 2.54211 10.2165 5.10351 10.2165 8.25057C10.2165 11.4008 12.7779 13.9623 15.9282 13.9623C19.0785 13.9623 21.6399 11.4008 21.6399 8.25057C21.6399 5.10351 19.0785 2.54211 15.9282 2.54211Z" fill="#284057"/>
<path d="M5.90777 39.7662C3.63275 39.7115 1.71172 37.7647 1.71172 35.509V24.5393C1.71172 20.8774 5.28672 17.7786 9.52141 17.7722H21.3374C21.3406 17.7722 21.3406 17.7722 21.3438 17.7722C22.9721 17.7722 24.6099 18.419 25.8359 19.5484C27.1295 20.739 27.8406 22.3093 27.8406 23.9665V29.1344H34.2184C34.9199 29.1344 35.4895 29.704 35.4895 30.4055C35.4895 31.1069 34.9199 31.6765 34.2184 31.6765H27.6379C26.3508 31.6765 25.3018 30.6275 25.3018 29.3371V23.9665C25.3018 23.0269 24.8802 22.1195 24.1176 21.4148C23.355 20.7133 22.3446 20.3111 21.3438 20.3111H9.52463C6.71867 20.3143 4.25379 22.29 4.25379 24.5361V35.5057C4.25379 36.3681 5.08724 37.2016 5.96893 37.2209H22.4186C23.5159 37.2112 24.375 36.307 24.375 35.1614C24.375 33.855 23.3646 32.8446 22.1225 32.8446H8.64939C7.94789 32.8446 7.37835 32.275 7.37835 31.5735V24.9641C7.37835 24.2626 7.94789 23.693 8.64939 23.693C9.35088 23.693 9.92046 24.2626 9.92046 24.9641V30.3025H22.1225C24.7644 30.3025 26.9171 32.452 26.9171 35.0971C26.9171 37.7228 24.951 39.7436 22.4411 39.7629H5.90777V39.7662Z" fill="#284057"/>
<path d="M50.4333 40.0365H29.6428C28.9413 40.0365 28.3718 39.5055 28.3718 38.804C28.3718 38.1025 28.9413 37.5716 29.6428 37.5716H38.0125L43.1095 22.3093C43.2833 21.7913 43.7692 21.4051 44.313 21.4051H55.8715C56.2802 21.4051 56.6663 21.6754 56.9044 22.0069C57.1426 22.3415 57.2069 22.8049 57.075 23.191L51.6368 39.2256C51.4631 39.7469 50.9772 40.0365 50.4333 40.0365ZM40.6929 37.5716H49.5227L54.1017 24.1468H45.2301L40.6929 37.5716Z" fill="#284057"/>
<path d="M59.9999 42.7781H0.823672V45.2429H59.9999V42.7781Z" fill="#284057"/>
<path d="M37.6908 65.5154H22.4447C21.7432 65.5154 21.0964 65.0263 21.0964 64.3248V49.0786C21.0964 48.3771 21.7432 47.7078 22.4447 47.7078H37.6908C38.3923 47.7078 38.904 48.3771 38.904 49.0786V64.3248C38.904 65.0263 38.3923 65.5154 37.6908 65.5154ZM23.8348 63.0505H36.4359V50.1759H23.8348V63.0505Z" fill="#284057"/>
<path d="M30.4442 59.63L27.4806 55.6785C27.059 55.1153 27.1749 54.3205 27.7348 53.899C28.2947 53.4807 29.0927 53.5933 29.5142 54.1532L31.2455 56.4604L33.2888 52.3705C33.6042 51.743 34.3668 51.4888 34.9943 51.8009C35.6217 52.1163 35.8759 52.8789 35.5638 53.5064L32.6002 59.4337C32.4039 59.8263 32.0177 60.0901 31.5769 60.132C31.1457 60.1706 30.7145 59.9904 30.4442 59.63Z" fill="#284057"/>
<path d="M16.5172 65.5154H1.27107C0.569583 65.5154 0 65.0263 0 64.3248V49.0786C0 48.3771 0.569583 47.7078 1.27107 47.7078H16.5172C17.2187 47.7078 17.8108 48.3771 17.8108 49.0786V64.3248C17.8076 65.0263 17.2187 65.5154 16.5172 65.5154ZM2.4681 63.0505H15.3427V50.1759H2.4681V63.0505Z" fill="#284057"/>
<path d="M58.8641 65.5154H43.6179C42.9164 65.5154 42.4659 65.0263 42.4659 64.3248V49.0786C42.4659 48.3771 42.9164 47.7078 43.6179 47.7078H58.8641C59.5655 47.7078 59.9999 48.3771 59.9999 49.0786V64.3248C59.9967 65.0263 59.5655 65.5154 58.8641 65.5154ZM44.9307 63.0505H57.5319V50.1759H44.9307V63.0505Z" fill="#284057"/>
<path d="M51.6176 59.63L48.654 55.6785C48.2324 55.1153 48.3483 54.3205 48.9082 53.899C49.4681 53.4807 50.2661 53.5933 50.6876 54.1532L52.4188 56.4604L54.4622 52.3705C54.7775 51.743 55.5402 51.4888 56.1677 51.8009C56.7951 52.1163 57.0493 52.8789 56.7372 53.5064L53.7736 59.4337C53.5773 59.8263 53.1879 60.0901 52.7503 60.132C52.3191 60.1706 51.8879 59.9904 51.6176 59.63Z" fill="#284057"/>
</svg>
